<svg width="170" height="170" xmlns="http://www.w3.org/2000/svg" xmlns:xlink="http://www.w3.org/1999/xlink" overflow="hidden"><defs><clipPath id="clip0"><rect x="640" y="268" width="170" height="170"/></clipPath></defs><g clip-path="url(#clip0)" transform="translate(-640 -268)"><path d="M719.142 311.18C720.115 311.742 721.065 312.316 721.991 312.901 721.762 311.141 721.484 309.476 721.156 307.906 719.615 308.425 718.041 309.021 716.447 309.694 717.343 310.171 718.242 310.661 719.142 311.18Z" fill="#85C5E9"/><path d="M720.339 304.497C718.138 296.448 714.773 291.802 712.14 291.802 709.507 291.802 706.185 296.392 703.984 304.346 706.85 305.281 709.656 306.39 712.386 307.667 714.974 306.458 717.629 305.399 720.339 304.497Z" fill="#85C5E9"/><path d="M705.14 335.433C704.166 334.872 703.216 334.299 702.289 333.712 702.532 335.584 702.833 337.353 703.185 339.005 704.841 338.474 706.539 337.856 708.264 337.146 707.224 336.6 706.181 336.035 705.14 335.433Z" fill="#85C5E9"/><path d="M708.326 309.694C706.571 308.956 704.843 308.306 703.157 307.746 702.803 309.459 702.486 311.288 702.243 313.236 703.341 312.535 704.47 311.848 705.631 311.175 706.53 310.661 707.428 310.171 708.326 309.694Z" fill="#85C5E9"/><path d="M691.905 325.956C686.284 331.743 684.057 336.823 685.353 339.06 686.102 340.356 688.409 341.102 691.682 341.102 694.433 341.05 697.168 340.667 699.828 339.963 699.21 337.066 698.767 334.134 698.503 331.183 696.206 329.568 694.003 327.823 691.905 325.956Z" fill="#85C5E9"/><path d="M698.464 315.802C698.722 312.767 699.168 309.751 699.799 306.771 696.991 305.997 694.098 305.576 691.186 305.517 687.913 305.517 685.606 306.262 684.857 307.56 683.531 309.862 685.919 315.15 691.873 321.132 693.965 319.229 696.165 317.449 698.464 315.802Z" fill="#85C5E9"/><path d="M694.419 323.524C695.581 324.555 696.842 325.592 698.202 326.636 698.162 325.54 698.141 324.431 698.138 323.307 698.138 322.315 698.159 321.337 698.191 320.367 696.831 321.424 695.57 322.481 694.419 323.524Z" fill="#85C5E9"/><path d="M704.021 342.407C706.224 350.275 709.539 354.812 712.14 354.812 714.742 354.812 718.096 350.222 720.298 342.267 717.603 341.39 714.961 340.356 712.386 339.172 709.667 340.421 706.873 341.501 704.021 342.407Z" fill="#85C5E9"/><path d="M783.446 355.302 771.228 334.052 771.228 333.167C772.3 303.778 749.345 279.084 719.956 278.011 690.567 276.939 665.873 299.894 664.801 329.283 664.753 330.577 664.753 331.873 664.801 333.167 664.732 349.922 672.453 365.757 685.696 376.021L685.696 420.823 741.655 420.823 741.655 399.573 750.332 399.573C761.872 399.575 771.229 390.221 771.231 378.68 771.231 378.561 771.23 378.442 771.228 378.323L771.228 367.698 779.019 367.698C783.623 367.167 787.696 361.854 783.446 355.302ZM742.457 340.81C740.976 343.372 737.617 344.603 733.094 344.603 729.902 344.542 726.729 344.085 723.649 343.241 721.12 352.347 716.909 358.312 712.14 358.312 707.371 358.312 703.198 352.396 700.665 343.354 697.73 344.129 694.712 344.548 691.676 344.603 687.154 344.603 683.794 343.363 682.316 340.81 679.961 336.737 682.918 330.215 689.369 323.56 682.574 316.73 679.41 309.986 681.825 305.804 683.304 303.241 686.663 302.012 691.186 302.012 694.379 302.072 697.553 302.529 700.633 303.372 703.16 294.267 707.371 288.301 712.144 288.301 716.916 288.301 721.163 294.322 723.688 303.496 726.911 302.58 730.238 302.082 733.589 302.012 738.111 302.012 741.471 303.241 742.951 305.804 745.365 309.986 742.2 316.73 735.405 323.56 741.853 330.215 744.812 336.731 742.457 340.81Z" fill="#85C5E9"/><path d="M733.585 305.512C730.513 305.578 727.462 306.04 724.508 306.888 725.099 309.708 725.525 312.56 725.783 315.43 728.27 317.179 730.647 319.081 732.898 321.125 738.859 315.143 741.242 309.848 739.916 307.553 739.167 306.25 736.865 305.512 733.585 305.512Z" fill="#85C5E9"/><path d="M716.509 337.146C718.073 337.79 719.617 338.366 721.125 338.86 721.443 337.348 721.717 335.743 721.947 334.045 721.187 334.514 720.419 334.978 719.633 335.433 718.59 336.035 717.548 336.6 716.509 337.146Z" fill="#85C5E9"/><path d="M730.351 323.524C729.059 322.354 727.631 321.166 726.078 319.983 726.119 321.078 726.14 322.188 726.142 323.31 726.142 324.564 726.116 325.804 726.064 327.029 727.621 325.853 729.05 324.685 730.351 323.524Z" fill="#85C5E9"/><path d="M725.747 331.553C725.486 334.34 725.064 337.11 724.483 339.848 727.29 340.622 730.183 341.043 733.094 341.102 736.369 341.102 738.676 340.356 739.425 339.06 740.716 336.823 738.488 331.743 732.873 325.956 730.614 327.965 728.235 329.835 725.747 331.553Z" fill="#85C5E9"/><path d="M717.385 314.219C715.723 313.259 714.049 312.372 712.381 311.562 710.713 312.381 709.038 313.268 707.375 314.219 705.392 315.364 703.541 316.537 701.818 317.72 701.699 319.512 701.641 321.376 701.641 323.314 701.641 325.379 701.715 327.358 701.85 329.257 703.426 330.319 705.103 331.382 706.891 332.409 708.717 333.462 710.557 334.433 712.381 335.315 714.21 334.429 716.05 333.462 717.871 332.409 719.464 331.49 720.973 330.551 722.397 329.606 722.547 327.603 722.632 325.506 722.632 323.314 722.632 321.249 722.556 319.269 722.423 317.371 720.856 316.299 719.179 315.244 717.385 314.219ZM712.135 328.562C709.235 328.562 706.884 326.212 706.884 323.312 706.884 320.412 709.235 318.061 712.135 318.061 715.033 318.061 717.382 320.409 717.385 323.307 717.389 326.206 715.043 328.559 712.144 328.562 712.143 328.562 712.141 328.562 712.14 328.562Z" fill="#85C5E9"/></g></svg>