<svg width="96" height="96" xmlns="http://www.w3.org/2000/svg" xmlns:xlink="http://www.w3.org/1999/xlink" overflow="hidden"><defs><clipPath id="clip0"><rect x="277" y="81" width="96" height="96"/></clipPath></defs><g clip-path="url(#clip0)" transform="translate(-277 -81)"><path d="M327.4 150.4 324.6 147.6 343.6 128.6 346.4 131.4 327.4 150.4ZM317.6 140.6 336.6 121.6 339.4 124.4 320.4 143.4 317.6 140.6ZM310.6 133.6 329.6 114.6 332.4 117.4 313.4 136.4 310.6 133.6ZM305 113C302.8 113 301 111.2 301 109 301 106.8 302.8 105 305 105 307.2 105 309 106.8 309 109 309 111.2 307.2 113 305 113ZM354.2 130.2 326.2 102.2C325.4 101.4 324.4 101 323.4 101L305 101C300.6 101 297 104.6 297 109L297 127.3C297 128.4 297.4 129.4 298.2 130.1L326.2 158.1C327.8 159.7 330.3 159.7 331.9 158.1L354.2 135.8C355.7 134.3 355.7 131.7 354.2 130.2Z" fill="#CCCCCC"/></g></svg>