<svg width="96" height="96" xmlns="http://www.w3.org/2000/svg" xmlns:xlink="http://www.w3.org/1999/xlink" overflow="hidden"><defs><clipPath id="clip0"><rect x="401" y="80" width="96" height="96"/></clipPath></defs><g clip-path="url(#clip0)" transform="translate(-401 -80)"><path d="M478.6 129.257 450.269 100.93C449.525 100.163 448.505 99.7263 447.437 99.716L428.82 99.716C424.355 99.7286 420.739 103.344 420.726 107.809L420.726 126.323C420.696 127.4 421.14 128.435 421.94 129.156L450.269 157.482C451.826 159.075 454.379 159.104 455.972 157.547 455.994 157.525 456.016 157.504 456.037 157.482L478.6 134.922C480.117 133.339 480.117 130.84 478.6 129.257ZM477.186 133.508 454.623 156.068C453.847 156.88 452.56 156.909 451.749 156.133 451.727 156.112 451.705 156.09 451.684 156.068L423.354 127.741 423.307 127.694 423.257 127.65C422.896 127.305 422.703 126.821 422.726 126.323L422.726 107.809C422.74 104.449 425.46 101.729 428.82 101.716L447.437 101.716C447.975 101.725 448.487 101.952 448.855 102.344L477.185 130.671C477.92 131.474 477.92 132.705 477.185 133.508Z" fill="#85C5E9"/><path d="M435.47 132.796 453.855 114.411 455.269 115.826 436.884 134.21Z" fill="#85C5E9"/><path d="M442.541 139.867 460.925 121.482 462.34 122.897 443.955 141.281Z" fill="#85C5E9"/><path d="M449.613 146.938 467.998 128.553 469.412 129.968 451.027 148.352Z" fill="#85C5E9"/><path d="M429.105 104.048C426.896 104.049 425.105 105.84 425.106 108.049 425.107 110.258 426.898 112.049 429.107 112.048 431.316 112.047 433.107 110.256 433.106 108.047 433.106 106.986 432.684 105.969 431.934 105.219 431.184 104.468 430.166 104.046 429.105 104.048ZM430.52 109.462C429.739 110.243 428.473 110.243 427.692 109.461 426.911 108.68 426.911 107.414 427.692 106.633 428.473 105.852 429.739 105.852 430.52 106.633 431.301 107.404 431.31 108.662 430.539 109.443 430.533 109.449 430.526 109.456 430.52 109.462Z" fill="#85C5E9"/></g></svg>