<svg width="113" height="114" xmlns="http://www.w3.org/2000/svg" xmlns:xlink="http://www.w3.org/1999/xlink" overflow="hidden"><defs><clipPath id="clip0"><rect x="73" y="411" width="113" height="114"/></clipPath></defs><g clip-path="url(#clip0)" transform="translate(-73 -411)"><path d="M92.9896 76.461C92.861 73.0368 91.2733 69.8313 88.6273 67.654 84.9395 64.5218 79.8828 61.8263 72.8191 59.2049 75.297 58.9346 77.7267 58.3292 80.0417 57.4052 80.0417 57.4052 77.3791 55.8126 75.73 49.2951 74.6836 45.2 78.688 34.9617 78.7222 27.7544 78.7222 21.9867 77.0837 19.4042 73.9891 17.6527 72.2035 16.6404 68.086 17.5727 68.086 17.5727 68.086 17.5727 65.9638 13.5365 58.8424 11.3235 52.9915 9.7285 46.7465 10.5246 41.4828 13.5365 37.0781 16.385 34.9594 19.5137 34.8511 30.2746 34.7604 40.1374 36.1141 48.896 35.4879 53.0253 35.1984 55.3115 34.3275 57.4855 32.9583 59.3391 35.116 59.5206 37.2828 59.5682 39.4464 59.4816 32.7676 62.0158 27.931 64.6313 24.3715 67.6529 21.715 69.8434 20.1267 73.0691 20.0104 76.5104L20.0104 97.1906 21.058 97.8898C26.8257 101.733 41.8842 103.648 56.8331 103.648 71.908 103.648 86.8688 101.7 92.0479 97.8156L92.9896 97.1094ZM73.5736 72.9792C74.8738 72.9792 75.9278 74.0331 75.9278 75.3333 75.9278 76.6335 74.8738 77.6875 73.5736 77.6875 72.2734 77.6875 71.2194 76.6335 71.2194 75.3333 71.2194 74.0331 72.2734 72.9792 73.5736 72.9792ZM42.375 32.8865C42.9486 32.8515 43.5197 32.7827 44.0853 32.6805 48.0345 32.1602 51.8888 31.0761 55.5301 29.4612 59.6228 27.4025 61.9687 26.3926 65.3646 23.318 65.8126 22.877 66.5332 22.8826 66.9743 23.3306 67.1417 23.5007 67.2515 23.7191 67.288 23.9548 67.5587 25.8264 68.2626 29.945 69.1984 31.587 69.6212 32.3946 70.0978 33.1728 70.625 33.9165L70.625 38.8438C70.625 46.6448 64.301 52.9688 56.5 52.9688 48.699 52.9688 42.375 46.6448 42.375 38.8438ZM65.706 61.1012C62.7177 61.982 59.6153 62.4147 56.5 62.3854 53.3819 62.4152 50.2766 61.982 47.2858 61.1 48.6494 59.9844 49.4395 58.3148 49.4375 56.553L49.4375 56.2869C53.9661 58.1373 59.0398 58.1373 63.5684 56.2869L63.5684 56.5483C63.5612 58.3104 64.347 59.9823 65.7083 61.1012ZM88.2812 94.6481C77.97 100.32 36.0188 100.272 24.7282 94.5763L24.7282 76.5599C24.816 74.4804 25.7999 72.5408 27.426 71.2418 30.7005 68.6328 34.3517 66.5357 38.2552 65.0221L38.2552 70.0624C33.6208 70.372 30.0189 74.2198 30.0156 78.8646 30.0172 79.364 30.2311 79.8391 30.6042 80.1712L30.6042 87.6927C30.6079 89.3316 31.7388 90.7524 33.335 91.1239 33.9294 91.8969 35.038 92.0416 35.811 91.4471 36.584 90.8527 36.7286 89.7441 36.1342 88.9711 35.5398 88.1983 34.4312 88.0535 33.6582 88.6479 33.6319 88.6682 33.6062 88.6892 33.581 88.7109 33.2022 88.5116 32.9632 88.1207 32.9583 87.6927L32.9583 80.1712C33.3318 79.8394 33.5459 79.3641 33.5469 78.8646 33.5469 75.9392 35.9183 73.5677 38.8438 73.5677L40.0208 73.5677C42.9462 73.5677 45.3177 75.9392 45.3177 78.8646 45.3192 79.364 45.5332 79.8391 45.9062 80.1712L45.9062 87.6927C45.9019 88.1205 45.6633 88.5115 45.2848 88.7109 44.5465 88.0737 43.4317 88.1558 42.7945 88.8939 42.1574 89.6322 42.2394 90.7471 42.9776 91.3842 43.7158 92.0213 44.8307 91.9394 45.4678 91.2011 45.4896 91.1759 45.5105 91.1503 45.5308 91.1239 47.1265 90.752 48.2568 89.3312 48.2604 87.6927L48.2604 80.1712C48.6339 79.8394 48.848 79.3641 48.849 78.8646 48.8438 74.2212 45.2425 70.3755 40.6094 70.0659L40.6094 64.0745C40.9354 63.9474 41.2544 63.8203 41.5958 63.692 45.0529 65.839 50.4863 67.0938 56.5 67.0938 62.5137 67.0938 67.946 65.8378 71.3983 63.692 71.7432 63.8215 72.061 63.9498 72.3942 64.0792L72.3942 70.7133C72.3942 70.7404 72.4083 70.7615 72.4095 70.7874 69.8896 71.4294 68.3672 73.9925 69.0092 76.5124 69.6512 79.0322 72.2143 80.5546 74.7342 79.9127 77.2541 79.2707 78.7764 76.7075 78.1344 74.1877 77.7089 72.5173 76.4046 71.213 74.7342 70.7874 74.7342 70.7615 74.7483 70.7392 74.7483 70.7133L74.7483 65.0268C78.6522 66.5381 82.3037 68.6341 85.5775 71.243 87.1945 72.5282 88.1796 74.4475 88.2812 76.5104Z" fill="#85C5E9" transform="matrix(1 0 0 1.00885 73 411)"/><path d="M74.7507 75.3333C74.7507 75.9834 74.2237 76.5104 73.5736 76.5104 72.9235 76.5104 72.3965 75.9834 72.3965 75.3333 72.3965 74.6833 72.9235 74.1562 73.5736 74.1562 74.2237 74.1562 74.7507 74.6833 74.7507 75.3333Z" fill="#85C5E9" transform="matrix(1 0 0 1.00885 73 411)"/></g></svg>