<svg width="96" height="96" xmlns="http://www.w3.org/2000/svg" xmlns:xlink="http://www.w3.org/1999/xlink" overflow="hidden"><defs><clipPath id="clip0"><rect x="422" y="203" width="96" height="96"/></clipPath></defs><g clip-path="url(#clip0)" transform="translate(-422 -203)"><path d="M506.006 216.999 434.006 216.999C431.799 217.005 430.012 218.792 430.006 220.999L430.006 268.999C430.012 271.205 431.799 272.992 434.006 272.999L462.006 272.999 462.006 278.999 452.006 278.999 452.006 284.999 488.006 284.999 488.006 278.999 478.006 278.999 478.006 272.999 506.006 272.999C508.212 272.992 509.999 271.205 510.006 268.999L510.006 220.999C509.999 218.792 508.212 217.005 506.006 216.999ZM462.506 266.999 436.006 266.999 436.006 246.499 462.506 246.499ZM462.506 243.499 436.006 243.499 436.006 222.999 462.506 222.999ZM504.006 266.999 465.506 266.999 465.506 222.999 504.006 222.999Z" fill="#85C5E9"/><path d="M495.006 249.496C495.029 248.624 494.616 247.799 493.906 247.294 492.323 246.055 490.487 245.178 488.528 244.726 487.059 244.285 485.539 244.038 484.006 243.993 482.469 243.997 480.943 244.245 479.483 244.726 477.552 245.255 475.731 246.125 474.106 247.294 473.416 247.817 473.01 248.631 473.006 249.496L473.006 254.999 495.006 254.999Z" fill="#85C5E9"/><path d="M489.506 237.022C489.506 240.06 487.043 242.522 484.006 242.522 480.968 242.522 478.506 240.06 478.506 237.022 478.506 233.985 480.968 231.522 484.006 231.522 487.043 231.522 489.506 233.985 489.506 237.022Z" fill="#85C5E9"/><path d="M456.006 237.061C456.02 236.525 455.766 236.017 455.329 235.707 454.355 234.944 453.225 234.404 452.019 234.126 451.116 233.855 450.18 233.703 449.236 233.675 448.291 233.678 447.352 233.83 446.453 234.126 445.265 234.452 444.144 234.987 443.144 235.707 442.72 236.028 442.47 236.529 442.467 237.061L442.467 240.448 456.006 240.448Z" fill="#85C5E9"/><path d="M452.622 229.385C452.622 231.255 451.106 232.771 449.237 232.771 447.367 232.771 445.851 231.255 445.851 229.385 445.851 227.515 447.367 226 449.237 226 451.106 226 452.622 227.515 452.622 229.385Z" fill="#85C5E9"/><path d="M456.006 260.612C456.02 260.076 455.766 259.568 455.329 259.258 454.355 258.495 453.225 257.955 452.019 257.677 451.116 257.405 450.18 257.254 449.236 257.226 448.291 257.229 447.352 257.381 446.453 257.677 445.265 258.003 444.144 258.538 443.144 259.258 442.72 259.579 442.47 260.08 442.467 260.612L442.467 263.999 456.006 263.999Z" fill="#85C5E9"/><path d="M452.622 252.936C452.622 254.806 451.106 256.322 449.237 256.322 447.367 256.322 445.851 254.806 445.851 252.936 445.851 251.066 447.367 249.551 449.237 249.551 451.106 249.551 452.622 251.066 452.622 252.936Z" fill="#85C5E9"/></g></svg>