<svg width="189" height="189" xmlns="http://www.w3.org/2000/svg" xmlns:xlink="http://www.w3.org/1999/xlink" overflow="hidden"><defs><clipPath id="clip0"><rect x="241" y="260" width="189" height="189"/></clipPath></defs><g clip-path="url(#clip0)" transform="translate(-241 -260)"><path d="M276.438 330.875 272.5 330.875 272.5 336.781 266.594 336.781 266.594 340.719 272.5 340.719 272.5 346.625 276.438 346.625 276.438 340.719 282.344 340.719 282.344 336.781 276.438 336.781 276.438 330.875Z" fill="#CCCCCC"/><path d="M380.781 419.407C380.781 419.407 389.641 412.713 389.641 407.201 389.641 403.662 384.146 399.732 380.798 406.184 380.789 406.201 380.773 406.201 380.765 406.184 377.416 399.732 371.922 403.662 371.922 407.201 371.922 412.713 380.781 419.407 380.781 419.407Z" fill="#CCCCCC"/><path d="M344.359 296.951C344.359 293.413 338.865 289.482 335.517 295.934 335.508 295.951 335.492 295.951 335.483 295.934 332.135 289.482 326.641 293.413 326.641 296.951 326.641 302.463 335.5 309.157 335.5 309.157 335.5 309.157 344.359 302.463 344.359 296.951Z" fill="#CCCCCC"/><path d="M396.531 356.469C406.364 356.516 414.374 348.583 414.422 338.75 414.469 328.917 406.536 320.907 396.703 320.86 386.87 320.812 378.86 328.745 378.812 338.578 378.805 340.182 379.014 341.779 379.433 343.326L358.693 351.622C354.798 343.237 346.686 337.603 337.469 336.881L337.469 316.978C347.194 315.89 354.196 307.125 353.109 297.4 352.022 287.675 343.256 280.672 333.531 281.76 323.806 282.847 316.804 291.612 317.891 301.337 318.811 309.564 325.304 316.058 333.531 316.978L333.531 336.882C324.315 337.604 316.203 343.238 312.308 351.622L291.567 343.326C294.07 333.891 288.45 324.213 279.015 321.709 269.579 319.206 259.901 324.826 257.398 334.261 254.895 343.696 260.515 353.375 269.95 355.878 277.928 357.994 286.309 354.307 290.139 346.996L310.921 355.308C308.441 363.809 310.576 372.988 316.554 379.521L300.702 395.373C292.807 389.572 281.704 391.269 275.902 399.164 270.101 407.059 271.798 418.162 279.693 423.964 287.588 429.765 298.691 428.068 304.493 420.173 309.401 413.494 309.03 404.306 303.599 398.044L319.399 382.244C328.776 389.877 342.224 389.877 351.601 382.244L367.401 398.044C360.946 405.478 361.74 416.737 369.173 423.193 376.607 429.648 387.866 428.855 394.322 421.421 400.777 413.987 399.984 402.728 392.55 396.273 386.255 390.807 377.013 390.433 370.298 395.373L354.446 379.521C360.424 372.988 362.559 363.809 360.079 355.308L380.861 346.996C383.923 352.816 389.955 356.462 396.531 356.469ZM274.469 352.531C266.858 352.531 260.688 346.361 260.688 338.75 260.688 331.139 266.858 324.969 274.469 324.969 282.08 324.969 288.25 331.139 288.25 338.75 288.241 346.357 282.076 352.522 274.469 352.531ZM321.719 299.375C321.719 291.764 327.889 285.594 335.5 285.594 343.111 285.594 349.281 291.764 349.281 299.375 349.281 306.986 343.111 313.156 335.5 313.156 327.893 313.147 321.728 306.982 321.719 299.375ZM290.219 423.406C282.608 423.406 276.438 417.236 276.438 409.625 276.438 402.014 282.608 395.844 290.219 395.844 297.83 395.844 304 402.014 304 409.625 303.991 417.232 297.826 423.397 290.219 423.406ZM323.536 380.273C323.601 373.666 329.01 368.362 335.618 368.427 342.09 368.491 347.339 373.691 347.462 380.163 347.467 380.246 347.467 380.33 347.46 380.414 340.218 385.235 330.79 385.237 323.545 380.421 323.537 380.372 323.534 380.323 323.536 380.273ZM330.503 359.498C330.504 356.738 332.741 354.501 335.501 354.502 338.261 354.502 340.497 356.74 340.497 359.499 340.496 362.259 338.259 364.496 335.5 364.496 332.741 364.492 330.506 362.256 330.503 359.498ZM394.562 409.625C394.562 417.236 388.392 423.406 380.781 423.406 373.17 423.406 367 417.236 367 409.625 367 402.014 373.17 395.844 380.781 395.844 388.389 395.853 394.554 402.018 394.562 409.625ZM351.103 377.355C350.091 372.215 346.62 367.9 341.816 365.811 345.306 362.322 345.307 356.665 341.819 353.176 338.33 349.686 332.673 349.685 329.184 353.173 325.694 356.661 325.693 362.318 329.181 365.808 329.182 365.809 329.183 365.81 329.184 365.811 324.38 367.9 320.909 372.215 319.897 377.355 311.603 368.738 311.864 355.029 320.481 346.734 329.097 338.439 342.807 338.701 351.102 347.317 358.83 355.346 359.204 367.93 351.965 376.403 351.687 376.729 351.399 377.046 351.103 377.355ZM396.531 324.969C404.142 324.969 410.312 331.139 410.312 338.75 410.312 346.361 404.142 352.531 396.531 352.531 388.92 352.531 382.75 346.361 382.75 338.75 382.759 331.143 388.924 324.978 396.531 324.969Z" fill="#CCCCCC"/><path d="M401.256 346.353C402.114 346.365 402.819 345.68 402.831 344.822 402.831 344.807 402.831 344.792 402.831 344.778 402.824 344.428 402.695 344.091 402.467 343.825 402.461 343.816 402.463 343.804 402.471 343.797 402.474 343.795 402.478 343.794 402.482 343.793L402.634 343.793C402.862 343.795 403.087 343.749 403.296 343.658 403.856 343.399 404.213 342.836 404.209 342.218 404.202 341.867 404.073 341.53 403.844 341.263 403.837 341.256 403.838 341.244 403.845 341.238 403.849 341.234 403.854 341.233 403.859 341.233 404.151 341.213 404.422 341.07 404.603 340.839 405.186 340.246 405.195 339.297 404.623 338.693 404.616 338.686 404.616 338.675 404.622 338.668 404.625 338.666 404.627 338.664 404.63 338.663 405.2 338.448 405.58 337.904 405.587 337.295 405.6 336.437 404.914 335.732 404.057 335.72 404.042 335.72 404.027 335.72 404.012 335.72L399.288 335.72C398.865 335.691 398.529 335.355 398.5 334.932 399.048 333.418 399.314 331.817 399.288 330.207L399.288 330.183C399.287 329.815 399.14 329.463 398.88 329.203 398.403 328.579 397.51 328.46 396.886 328.937 396.495 329.237 396.286 329.717 396.334 330.207 396.334 333.948 391.806 336.113 391.806 336.113L391.413 336.113 391.413 344.382C393.184 344.382 393.381 346.351 396.728 346.351Z" fill="#CCCCCC"/><path d="M390.231 344.384 390.231 335.918C390.262 335.406 389.872 334.965 389.359 334.934 389.322 334.932 389.284 334.932 389.247 334.934L387.475 334.934 387.475 345.368 389.247 345.368C389.76 345.399 390.2 345.009 390.231 344.496 390.233 344.459 390.233 344.421 390.231 344.384Z" fill="#CCCCCC"/><path d="M299.275 408.171C299.287 407.314 298.602 406.609 297.745 406.596 297.73 406.596 297.715 406.596 297.7 406.596L292.975 406.596C292.552 406.568 292.216 406.231 292.188 405.809 292.735 404.295 293.002 402.694 292.975 401.084L292.975 401.06C292.974 400.692 292.828 400.34 292.568 400.08 292.09 399.456 291.198 399.337 290.574 399.814 290.182 400.113 289.973 400.594 290.022 401.084 290.022 404.825 285.494 406.99 285.494 406.99L285.1 406.99 285.1 415.259C286.872 415.259 287.069 417.228 290.416 417.228L294.944 417.228C295.801 417.24 296.507 416.555 296.519 415.697 296.519 415.682 296.519 415.667 296.519 415.653 296.511 415.303 296.383 414.966 296.155 414.7 296.149 414.691 296.15 414.679 296.159 414.672 296.162 414.67 296.166 414.669 296.169 414.668L296.322 414.668C297.18 414.681 297.885 413.995 297.897 413.137 297.897 413.123 297.897 413.108 297.897 413.093 297.889 412.742 297.76 412.404 297.531 412.138 297.524 412.131 297.525 412.119 297.532 412.113 297.535 412.11 297.54 412.108 297.545 412.108 297.838 412.089 298.109 411.946 298.291 411.714 298.874 411.121 298.882 410.172 298.31 409.568 298.303 409.561 298.303 409.55 298.31 409.543 298.312 409.541 298.315 409.539 298.317 409.538 298.887 409.323 299.267 408.781 299.275 408.171Z" fill="#CCCCCC"/><path d="M282.934 405.809 281.163 405.809 281.163 416.244 282.934 416.244C283.447 416.274 283.888 415.884 283.919 415.371 283.921 415.334 283.921 415.297 283.919 415.259L283.919 406.794C283.95 406.281 283.559 405.84 283.047 405.809 283.009 405.807 282.972 405.807 282.934 405.809Z" fill="#CCCCCC"/></g></svg>