<svg width="189" height="189" xmlns="http://www.w3.org/2000/svg" xmlns:xlink="http://www.w3.org/1999/xlink" overflow="hidden"><defs><clipPath id="clip0"><rect x="24" y="269" width="189" height="189"/></clipPath></defs><g clip-path="url(#clip0)" transform="translate(-24 -269)"><path d="M205.125 369.406C205.146 365.079 201.656 361.553 197.328 361.532 195.863 361.525 194.426 361.928 193.179 362.697L159.513 381.945C159.968 384.136 159.953 386.397 159.472 388.582 157.705 395.893 151.115 401.009 143.594 400.906L108.656 400.906 108.656 393.031 144.094 393.031C148.443 393.031 151.969 389.505 151.969 385.156 151.969 380.807 148.443 377.281 144.094 377.281L96.8438 377.281C93.5587 377.282 90.3394 378.201 87.5493 379.935L31.875 406.812 59.4375 434.375C72.1733 421.639 88.7227 416.656 106.688 416.656L143.483 416.656C145.159 416.656 146.791 416.122 148.142 415.13L202.217 375.47C204.051 373.99 205.119 371.762 205.125 369.406Z" fill="#85C5E9"/><path d="M126.375 309.783C113.972 285.173 92.9062 299.939 92.9062 313.72 92.9062 334.392 126.375 359.986 126.375 359.986 126.375 359.986 159.844 334.392 159.844 313.72 159.844 299.939 138.778 285.173 126.375 309.783Z" fill="#85C5E9"/></g></svg>