<svg width="1712" height="1299" xmlns="http://www.w3.org/2000/svg" xmlns:xlink="http://www.w3.org/1999/xlink" xml:space="preserve" overflow="hidden"><defs><clipPath id="clip0"><rect x="1326" y="611" width="1712" height="1299"/></clipPath><clipPath id="clip1"><rect x="2843" y="632" width="196" height="197"/></clipPath><clipPath id="clip2"><rect x="2843" y="632" width="196" height="197"/></clipPath><clipPath id="clip3"><rect x="2843" y="632" width="196" height="197"/></clipPath><clipPath id="clip4"><rect x="1325" y="763" width="197" height="196"/></clipPath><clipPath id="clip5"><rect x="1325" y="763" width="197" height="196"/></clipPath><clipPath id="clip6"><rect x="1325" y="763" width="197" height="196"/></clipPath><clipPath id="clip7"><rect x="2843" y="1497" width="196" height="195"/></clipPath><clipPath id="clip8"><rect x="2843" y="1497" width="196" height="195"/></clipPath><clipPath id="clip9"><rect x="2843" y="1497" width="196" height="195"/></clipPath></defs><g clip-path="url(#clip0)" transform="translate(-1326 -611)"><path d="M2200.2 741C2487.39 741.112 2720.11 973.792 2720 1260.7 2719.92 1461.07 2604.51 1643.53 2423.41 1729.61L2382.16 1643C2593.66 1542.51 2683.56 1289.8 2582.95 1078.55 2512.69 931.016 2363.74 836.994 2200.17 836.93Z" fill="#CCCCCC" fill-rule="evenodd"/><path d="M1930 1260.5C1930 1117.18 2046.18 1001 2189.5 1001 2332.82 1001 2449 1117.18 2449 1260.5 2449 1403.82 2332.82 1520 2189.5 1520 2046.18 1520 1930 1403.82 1930 1260.5ZM2011.16 1260.5C2011.16 1358.99 2091.01 1438.84 2189.5 1438.84 2287.99 1438.84 2367.84 1358.99 2367.84 1260.5 2367.84 1162.01 2287.99 1082.16 2189.5 1082.16 2091.01 1082.16 2011.16 1162.01 2011.16 1260.5Z" fill="#F3F3F3" fill-rule="evenodd"/><path d="M1673.38 1001.54 1472.5 885.5" stroke="#66D3CA" stroke-width="22.9167" stroke-miterlimit="8" fill="none" fill-rule="evenodd"/><path d="M2200.25 611C2559.24 611.14 2850.14 902.045 2850 1260.75 2849.86 1619.46 2558.73 1910.14 2199.75 1910 1840.76 1909.86 1549.86 1618.95 1550 1260.25 1550.05 1130.39 1589.06 1003.52 1661.98 896.038L1741 949.564C1569.12 1202.84 1635.28 1547.36 1888.78 1719.09 2142.28 1890.82 2487.12 1824.71 2659 1571.44 2830.88 1318.16 2764.72 973.636 2511.22 801.911 2419.44 739.737 2311.11 706.481 2200.22 706.438Z" fill="#66D3CA" fill-rule="evenodd"/><path d="M2200.15 871C2415.54 871.084 2590.08 1045.54 2590 1260.65 2589.92 1475.77 2415.24 1650.08 2199.85 1650 2169.81 1649.99 2139.87 1646.51 2110.63 1639.64L2133.99 1540.55C2288.92 1576.95 2444.08 1481.07 2480.54 1326.4 2517 1171.73 2420.95 1016.84 2266.01 980.448 2244.41 975.375 2222.3 972.809 2200.11 972.8Z" fill="#85C5E9" fill-rule="evenodd"/><path d="M2617.5 1451.5 2875.49 1562.54" stroke="#CCCCCC" stroke-width="22.9167" stroke-miterlimit="8" fill="none" fill-rule="evenodd"/><path d="M0 0 399.765 296.484" stroke="#85C5E9" stroke-width="22.9167" stroke-miterlimit="8" fill="none" fill-rule="evenodd" transform="matrix(1 0 0 -1 2475.5 1059.98)"/><g clip-path="url(#clip1)"><g clip-path="url(#clip2)"><g clip-path="url(#clip3)"><path d="M97.4715 20.3125C54.8657 20.3125 20.3267 54.8514 20.3267 97.4573 20.3267 140.063 54.8657 174.602 97.4715 174.602 140.077 174.602 174.616 140.063 174.616 97.4573 174.616 97.4553 174.616 97.4532 174.616 97.4512 174.631 54.8632 140.118 20.3271 97.5304 20.3125 97.5107 20.3125 97.4912 20.3125 97.4715 20.3125ZM119.527 132.049 75.4183 132.049 75.4183 125.576C75.378 122.863 75.8822 120.169 76.9011 117.654 77.8996 115.281 79.277 113.085 80.9798 111.154 82.7919 109.103 84.8162 107.25 87.0187 105.625 89.3126 103.917 91.7854 102.254 94.4368 100.634 96.6572 99.3045 98.7634 97.7929 100.734 96.1146 102.215 94.8506 103.532 93.4052 104.652 91.8125 105.574 90.4948 106.249 89.0205 106.645 87.4615 107.015 85.8696 107.196 84.2393 107.183 82.6048 107.185 81.1842 106.958 79.7724 106.509 78.4245 106.086 77.1243 105.409 75.921 104.518 74.884 103.589 73.8306 102.438 72.9978 101.146 72.4465 99.6429 71.8138 98.0236 71.5036 96.3929 71.5365 93.2079 71.5245 90.065 72.2643 87.2198 73.6957 84.2278 75.2141 81.4779 77.1684 79.0603 79.495L79.0603 68.9731C81.3964 66.797 84.1981 65.1824 87.2523 64.2525 90.548 63.2752 93.9713 62.7959 97.4086 62.8306 100.153 62.8115 102.884 63.2228 105.501 64.0493 107.909 64.7987 110.153 66.0004 112.111 67.5898 114.015 69.161 115.537 71.1439 116.563 73.389 117.68 75.8781 118.235 78.5829 118.188 81.3109 118.212 83.7642 117.927 86.2107 117.341 88.5929 116.767 90.8295 115.828 92.9563 114.562 94.8878 113.152 97.0143 111.463 98.9427 109.541 100.622 107.176 102.685 104.65 104.556 101.987 106.218 99.5576 107.748 97.399 109.165 95.5114 110.467 93.8015 111.628 92.1882 112.925 90.6871 114.345 89.4664 115.489 88.4522 116.835 87.689 118.324 87.0027 119.743 86.6551 121.302 86.6734 122.878L119.519 122.878Z" fill="#85C5E9" transform="matrix(1 0 0 1 2843 633)"/></g></g></g><g clip-path="url(#clip4)"><g clip-path="url(#clip5)"><g clip-path="url(#clip6)"><path d="M97.4715 20.3125C54.8657 20.3125 20.3267 54.8514 20.3267 97.4573 20.3267 140.063 54.8657 174.602 97.4715 174.602 140.077 174.602 174.616 140.063 174.616 97.4573 174.616 97.4547 174.616 97.4518 174.616 97.4492 174.631 54.8624 140.119 20.3271 97.5325 20.3125 97.5121 20.3125 97.4918 20.3125 97.4715 20.3125ZM105.934 130.203 94.1992 130.203 94.1992 74.1589C93.2079 74.8359 92.1618 75.4879 91.0609 76.115 89.9606 76.744 88.8237 77.3069 87.6565 77.8009 86.3945 78.2965 85.0681 78.7576 83.6773 79.1842 82.2865 79.6107 80.7578 80.0265 79.0907 80.4314L79.0907 71.0572C80.2146 70.7417 81.2372 70.4269 82.1579 70.1126 83.0787 69.7984 83.9901 69.4835 84.892 69.1681 85.7878 68.8086 86.6897 68.4389 87.5895 68.055 88.4893 67.6711 89.3871 67.3034 90.287 66.9418 91.1401 66.4923 92.0048 66.0426 92.8809 65.5931 93.757 65.1436 94.6237 64.6695 95.4809 64.1712 96.4289 63.6782 97.3612 63.1367 98.2779 62.5462 99.1946 61.9557 100.128 61.4142 101.079 60.9212L105.934 60.9212Z" fill="#66D3CA" transform="matrix(1 0 0 1 1326 763)"/></g></g></g><g clip-path="url(#clip7)"><g clip-path="url(#clip8)"><g clip-path="url(#clip9)"><path d="M2940.47 1517.31C2897.86 1517.31 2863.32 1551.85 2863.32 1594.46 2863.32 1637.06 2897.86 1671.6 2940.47 1671.61 2983.07 1671.61 3017.62 1637.07 3017.62 1594.46 3017.62 1594.46 3017.62 1594.46 3017.62 1594.45 3017.63 1551.87 2983.12 1517.33 2940.53 1517.31 2940.51 1517.31 2940.49 1517.31 2940.47 1517.31ZM2960.88 1617.92C2959.46 1620.45 2957.49 1622.61 2955.11 1624.26 2952.54 1626.04 2949.68 1627.35 2946.65 1628.14 2943.34 1629.03 2939.92 1629.47 2936.49 1629.46 2933.03 1629.47 2929.58 1629.16 2926.18 1628.55 2923.33 1628.09 2920.57 1627.16 2918.02 1625.82L2918.02 1615.42C2920.73 1617.31 2923.75 1618.71 2926.95 1619.54 2930.17 1620.42 2933.49 1620.87 2936.83 1620.89 2938.44 1620.87 2940.04 1620.72 2941.62 1620.41 2943.29 1620.11 2944.9 1619.53 2946.38 1618.69 2947.84 1617.86 2949.09 1616.69 2950.02 1615.29 2951.04 1613.65 2951.54 1611.75 2951.47 1609.83 2951.53 1607.86 2951.05 1605.91 2950.09 1604.19 2949.15 1602.63 2947.83 1601.33 2946.24 1600.42 2944.44 1599.39 2942.48 1598.67 2940.44 1598.29 2938.05 1597.83 2935.62 1597.6 2933.19 1597.62L2926.92 1597.62 2926.92 1588.99 2932.86 1588.99C2935.02 1589 2937.18 1588.8 2939.3 1588.38 2941.1 1588.04 2942.81 1587.36 2944.36 1586.39 2945.74 1585.5 2946.88 1584.28 2947.66 1582.84 2948.49 1581.22 2948.9 1579.41 2948.84 1577.59 2948.91 1575.93 2948.53 1574.29 2947.73 1572.83 2947.04 1571.64 2946.06 1570.65 2944.89 1569.93 2943.73 1569.23 2942.47 1568.74 2941.14 1568.48 2939.86 1568.22 2938.55 1568.08 2937.23 1568.07 2934.4 1568.1 2931.59 1568.51 2928.87 1569.29 2926.03 1570.06 2923.34 1571.29 2920.91 1572.93L2920.91 1563.36C2923.43 1562.02 2926.13 1561.04 2928.92 1560.43 2931.97 1559.76 2935.08 1559.43 2938.19 1559.45 2940.98 1559.45 2943.75 1559.77 2946.46 1560.43 2948.98 1561.02 2951.38 1562.03 2953.57 1563.43 2955.59 1564.73 2957.29 1566.49 2958.53 1568.55 2959.8 1570.79 2960.44 1573.33 2960.38 1575.91 2960.54 1579.95 2959.15 1583.91 2956.5 1586.97 2953.66 1589.99 2949.95 1592.04 2945.88 1592.83 2948.08 1593.06 2950.24 1593.61 2952.29 1594.46 2954.3 1595.28 2956.15 1596.43 2957.78 1597.87 2959.37 1599.27 2960.66 1600.96 2961.59 1602.86 2962.55 1604.82 2963.04 1606.98 2963.01 1609.16 2963.08 1612.22 2962.34 1615.24 2960.88 1617.92Z" fill="#CCCCCC"/></g></g></g></g></svg>