<svg width="57" height="57" xmlns="http://www.w3.org/2000/svg" xmlns:xlink="http://www.w3.org/1999/xlink" xml:space="preserve" overflow="hidden"><defs><clipPath id="clip0"><rect x="1070" y="88" width="57" height="57"/></clipPath></defs><g clip-path="url(#clip0)" transform="translate(-1070 -88)"><path d="M1098.49 93.9375C1086.04 93.9375 1075.94 104.034 1075.94 116.488 1075.94 128.942 1086.04 139.038 1098.49 139.038 1110.95 139.038 1121.04 128.942 1121.04 116.488 1121.04 116.487 1121.04 116.486 1121.04 116.486 1121.05 104.037 1110.96 93.9418 1098.51 93.9375 1098.5 93.9375 1098.5 93.9375 1098.49 93.9375ZM1104.94 126.599 1092.05 126.599 1092.05 124.707C1092.03 123.914 1092.18 123.126 1092.48 122.391 1092.77 121.697 1093.17 121.056 1093.67 120.491 1094.2 119.892 1094.79 119.35 1095.44 118.875 1096.11 118.376 1096.83 117.89 1097.6 117.416 1098.25 117.027 1098.87 116.586 1099.45 116.095 1099.88 115.726 1100.26 115.303 1100.59 114.838 1100.86 114.452 1101.06 114.021 1101.17 113.566 1101.28 113.1 1101.33 112.624 1101.33 112.146 1101.33 111.731 1101.26 111.318 1101.13 110.924 1101.01 110.544 1100.81 110.192 1100.55 109.889 1100.28 109.581 1099.94 109.338 1099.57 109.177 1099.13 108.992 1098.65 108.901 1098.18 108.911 1097.25 108.907 1096.33 109.123 1095.49 109.542 1094.62 109.986 1093.82 110.557 1093.11 111.237L1093.11 108.161C1093.79 107.525 1094.61 107.053 1095.5 106.782 1096.47 106.496 1097.47 106.356 1098.47 106.366 1099.28 106.36 1100.07 106.481 1100.84 106.722 1101.54 106.941 1102.2 107.292 1102.77 107.757 1103.33 108.216 1103.77 108.796 1104.07 109.452 1104.4 110.18 1104.56 110.97 1104.55 111.768 1104.55 112.485 1104.47 113.2 1104.3 113.896 1104.13 114.55 1103.86 115.172 1103.49 115.736 1103.08 116.358 1102.58 116.922 1102.02 117.413 1101.33 118.016 1100.59 118.563 1099.81 119.048 1099.1 119.496 1098.47 119.91 1097.92 120.29 1097.42 120.63 1096.95 121.009 1096.51 121.424 1096.15 121.758 1095.86 122.152 1095.63 122.587 1095.43 123.002 1095.33 123.458 1095.34 123.918L1104.94 123.918Z" fill="#85C5E9"/></g></svg>