<svg width="56" height="56" xmlns="http://www.w3.org/2000/svg" xmlns:xlink="http://www.w3.org/1999/xlink" xml:space="preserve" overflow="hidden"><defs><clipPath id="clip0"><rect x="180" y="124" width="56" height="56"/></clipPath></defs><g clip-path="url(#clip0)" transform="translate(-180 -124)"><path d="M207.992 129.833C195.756 129.833 185.837 139.752 185.837 151.988 185.837 164.223 195.756 174.142 207.992 174.142 220.227 174.142 230.146 164.223 230.146 151.988 230.146 151.987 230.146 151.986 230.146 151.985 230.15 139.755 220.239 129.838 208.009 129.833 208.003 129.833 207.998 129.833 207.992 129.833ZM210.422 161.392 207.052 161.392 207.052 145.297C206.767 145.491 206.467 145.679 206.151 145.859 205.835 146.039 205.508 146.201 205.173 146.343 204.811 146.485 204.43 146.618 204.03 146.74 203.631 146.863 203.192 146.982 202.713 147.098L202.713 144.406C203.036 144.316 203.33 144.225 203.594 144.135 203.859 144.045 204.12 143.954 204.379 143.864 204.637 143.76 204.896 143.654 205.154 143.544 205.412 143.434 205.67 143.328 205.929 143.224 206.174 143.095 206.422 142.966 206.673 142.837 206.925 142.708 207.174 142.572 207.42 142.429 207.692 142.287 207.96 142.132 208.223 141.962 208.487 141.792 208.755 141.637 209.028 141.495L210.422 141.495Z" fill="#66D3CA"/></g></svg>