<svg width="133" height="133" xmlns="http://www.w3.org/2000/svg" xmlns:xlink="http://www.w3.org/1999/xlink" overflow="hidden"><defs><clipPath id="clip0"><rect x="476" y="129" width="133" height="133"/></clipPath></defs><g clip-path="url(#clip0)" transform="translate(-476 -129)"><path d="M590.713 183.031C589.604 183.031 588.634 183.17 587.526 183.447L584.478 174.165C592.929 169.731 596.254 159.341 591.821 150.89 587.388 142.439 576.997 139.114 568.546 143.547 563.974 145.902 560.649 150.335 559.541 155.323L547.349 154.215C547.21 147.842 542.084 142.854 535.711 142.993 529.339 143.131 524.351 148.257 524.49 154.63 524.49 156.985 525.321 159.202 526.568 161.142L511.328 176.243C504.124 170.008 493.179 170.701 486.945 177.905 480.71 185.109 481.265 196.054 488.469 202.289 491.655 205.059 495.673 206.583 499.829 206.583 500.245 206.583 500.66 206.583 501.076 206.583L504.817 226.533C498.721 228.334 495.396 234.707 497.197 240.803 498.998 246.899 505.371 250.224 511.467 248.423 517.562 246.622 520.888 240.249 519.086 234.153 518.809 233.46 518.532 232.768 518.255 232.075L530.585 225.841 530.585 225.841C537.374 235.123 550.397 237.062 559.541 230.274 566.606 225.009 569.654 216.004 567.16 207.553L580.599 200.21C583.785 205.614 590.713 207.553 596.254 204.367 601.657 201.18 603.597 194.253 600.41 188.711 598.471 185.248 594.73 183.031 590.713 183.031ZM567.992 170.701C568.407 166.129 572.564 162.666 577.135 163.081 581.153 163.497 584.34 166.683 584.755 170.701 579.768 174.165 573.118 174.165 567.992 170.701ZM572.564 156.431C572.564 154.353 574.226 152.552 576.443 152.552 578.659 152.552 580.322 154.215 580.322 156.431 580.322 158.509 578.659 160.31 576.443 160.31 574.365 160.31 572.564 158.509 572.564 156.431L572.564 156.431ZM576.443 144.24C584.478 144.24 590.99 150.751 590.99 158.786 590.99 162.389 589.604 165.852 587.249 168.623 586.418 165.436 584.062 162.666 581.015 161.28 583.647 158.786 583.785 154.63 581.292 151.859 578.798 149.227 574.642 149.089 571.871 151.582 569.1 154.076 569.1 158.232 571.594 161.003 571.732 161.142 571.871 161.28 571.871 161.28 568.823 162.666 566.468 165.298 565.636 168.623 560.233 162.666 560.649 153.522 566.606 148.119 569.377 145.625 572.841 144.24 576.443 144.24ZM567.16 173.472 555.939 194.669C546.102 190.097 534.603 193.837 529.339 203.258L515.9 195.916C518.394 189.958 517.285 183.17 513.268 178.182L528.507 162.943C533.218 167.099 540.422 166.545 544.578 161.696 545.825 160.31 546.656 158.648 547.072 156.847L559.264 157.955C559.264 158.232 559.264 158.509 559.264 158.786 559.125 164.744 562.173 170.285 567.16 173.472ZM534.049 152.829C534.049 151.721 534.88 150.89 535.989 150.89 537.097 150.89 537.928 151.721 537.928 152.829 537.928 153.938 537.097 154.769 535.989 154.769 535.989 154.769 535.989 154.769 535.989 154.769 534.88 154.63 534.049 153.799 534.049 152.829ZM535.989 157.401C538.344 157.401 540.283 159.064 540.699 161.419 537.79 163.358 534.188 163.358 531.278 161.419 531.555 159.202 533.495 157.54 535.989 157.401ZM535.989 145.625C540.699 145.625 544.578 149.504 544.717 154.215 544.717 156.016 544.162 157.817 543.054 159.341 542.361 157.817 541.253 156.431 539.729 155.6 540.422 154.769 540.699 153.799 540.699 152.691 540.699 150.058 538.621 147.98 535.989 147.98 533.356 147.98 531.278 150.058 531.278 152.691 531.278 153.799 531.694 154.769 532.248 155.6 530.724 156.431 529.616 157.678 528.923 159.341 526.152 155.461 526.983 150.058 530.724 147.288 532.248 146.179 534.049 145.625 535.989 145.625ZM485.421 189.266C485.421 181.23 491.932 174.719 499.968 174.719 508.003 174.719 514.515 181.23 514.515 189.266 514.515 192.868 513.129 196.331 510.774 199.102 509.943 195.916 507.587 193.145 504.54 191.759 507.172 189.266 507.31 185.109 504.817 182.339 502.323 179.568 498.167 179.568 495.396 182.061 492.764 184.555 492.625 188.711 495.119 191.482 495.257 191.621 495.396 191.759 495.396 191.759 492.348 193.145 489.993 195.777 489.161 199.102 486.668 196.331 485.421 192.868 485.421 189.266ZM496.089 186.91C496.089 184.832 497.751 183.031 499.968 183.031 502.184 183.031 503.847 184.694 503.847 186.91 503.847 188.989 502.184 190.79 499.968 190.79 497.751 190.79 496.089 188.989 496.089 186.91ZM491.517 201.18C491.932 196.608 496.089 193.145 500.66 193.56 504.678 193.976 507.865 197.163 508.28 201.18 503.293 204.644 496.504 204.644 491.517 201.18ZM503.431 244.682C503.847 242.05 506.202 240.249 508.834 240.665 510.913 240.942 512.575 242.604 512.852 244.682 510.081 246.483 506.341 246.483 503.431 244.682ZM506.341 235.954C506.341 234.846 507.172 234.015 508.28 234.015 509.389 234.015 510.22 234.846 510.22 235.954 510.22 237.062 509.389 237.894 508.28 237.894 507.172 237.755 506.341 236.924 506.341 235.954L506.341 235.954ZM515.207 242.466C514.515 240.942 513.406 239.556 511.882 238.725 512.575 237.894 512.852 236.924 512.852 235.816 512.852 233.183 510.774 231.105 508.142 231.105 505.509 231.105 503.431 233.183 503.431 235.816 503.431 236.924 503.847 237.894 504.401 238.725 502.877 239.556 501.769 240.803 501.076 242.466 498.305 238.586 499.136 233.183 503.016 230.412 506.895 227.642 512.298 228.473 515.069 232.352 517.424 235.261 517.424 239.418 515.207 242.466L515.207 242.466ZM516.593 229.72C514.515 227.365 511.467 225.979 508.28 225.979 508.142 225.979 507.865 225.979 507.726 225.979L503.985 206.029C508.419 204.921 512.298 202.15 514.653 198.271L528.092 205.614C525.736 211.432 526.152 217.944 529.061 223.347L516.593 229.72ZM536.82 228.057C537.235 222.239 542.361 217.944 548.18 218.359 553.306 218.775 557.463 222.931 557.878 228.057 551.644 232.629 543.054 232.629 536.82 228.057ZM542.361 210.601C542.361 207.83 544.578 205.614 547.349 205.614 550.12 205.614 552.336 207.83 552.336 210.601 552.336 213.372 550.12 215.589 547.349 215.589 547.349 215.589 547.349 215.589 547.349 215.589 544.578 215.589 542.361 213.372 542.361 210.601ZM560.372 225.979C559.402 221.684 556.354 218.221 552.336 216.558 555.661 213.788 556.077 208.939 553.306 205.614 550.535 202.289 545.686 201.873 542.361 204.644 539.036 207.415 538.621 212.264 541.392 215.589 541.669 216.004 542.084 216.281 542.361 216.558 538.344 218.221 535.296 221.684 534.326 225.979 527.399 218.775 527.676 207.415 534.88 200.487 542.084 193.56 553.445 193.837 560.372 201.042 567.022 207.969 567.022 219.052 560.372 225.979ZM566.191 204.921C564.528 201.18 561.757 198.132 558.432 195.916L569.654 174.719C573.533 176.381 577.828 176.52 581.846 175.273L584.894 184.555C580.322 187.188 578.105 192.591 579.629 197.578L566.191 204.921ZM585.864 201.734C586.279 199.102 588.634 197.301 591.267 197.717 593.345 197.994 595.007 199.656 595.284 201.734 592.514 203.535 588.773 203.535 585.864 201.734ZM588.773 193.006C588.773 191.898 589.604 191.067 590.713 191.067 591.821 191.067 592.652 191.898 592.652 193.006 592.652 194.115 591.821 194.946 590.713 194.946 590.713 194.946 590.713 194.946 590.713 194.946 589.604 194.807 588.773 193.976 588.773 193.006L588.773 193.006ZM597.64 199.518C596.947 197.994 595.839 196.608 594.315 195.777 595.007 194.946 595.284 193.976 595.284 192.868 595.284 190.235 593.206 188.157 590.574 188.157 587.942 188.157 585.864 190.235 585.864 192.868 585.864 193.976 586.279 194.946 586.833 195.777 585.309 196.608 584.201 197.855 583.508 199.518 580.737 195.639 581.569 190.235 585.448 187.465 589.327 184.694 594.73 185.525 597.501 189.404 599.856 192.314 599.856 196.47 597.64 199.518 597.64 199.518 597.64 199.518 597.64 199.518Z" fill="#66D3CA"/></g></svg>