<svg width="96" height="96" xmlns="http://www.w3.org/2000/svg" xmlns:xlink="http://www.w3.org/1999/xlink" overflow="hidden"><defs><clipPath id="clip0"><rect x="832" y="591" width="96" height="96"/></clipPath></defs><g clip-path="url(#clip0)" transform="translate(-832 -591)"><path d="M859 638 859 677 866 677 866 648.383C866 647.278 866.895 646.383 868 646.383 869.105 646.383 870 647.278 870 648.383L870 677 878 677 878 648.383C878 647.278 878.895 646.383 880 646.383 881.105 646.383 882 647.278 882 648.383L882 677 890 677 890 648.383C890 647.278 890.895 646.383 892 646.383 893.105 646.383 894 647.278 894 648.383L894 677 901 677 901 638Z" fill="#85C5E9"/><path d="M916.7 613.221 916.7 613.221C915.898 606.254 909.997 600.997 902.984 601L858.141 601C852.942 600.94 848.09 603.602 845.348 608.019 840.169 616.655 846.347 626 854.919 626L856.152 626C858.209 626 860.164 625.103 861.505 623.544L861.505 623.544C863.065 621.773 863.773 619.408 863.441 617.071 863.115 614.985 861.516 612.771 859.194 612.771 856.95 612.771 855.5 614.101 855.5 616.159 855.499 616.744 855.835 617.278 856.363 617.531 857.125 617.857 857.478 618.738 857.153 619.5 857.104 619.612 857.043 619.719 856.969 619.816 856.491 620.402 855.663 620.564 855 620.2 853.47 619.431 852.504 617.867 852.5 616.155 852.463 612.658 855.268 609.794 858.765 609.757 858.908 609.755 859.051 609.759 859.194 609.767 862.694 609.767 865.794 612.707 866.405 616.605 867.126 621.906 864.037 626.987 859 628.787L859 634 901 634 901 628.717C896.092 626.83 893.121 621.82 893.821 616.608 894.431 612.708 897.531 609.769 901.032 609.769 904.523 609.566 907.518 612.231 907.722 615.722 907.73 615.867 907.734 616.012 907.732 616.157 907.728 617.869 906.762 619.433 905.232 620.202 904.567 620.567 903.737 620.403 903.26 619.814 902.76 619.154 902.89 618.213 903.55 617.713 903.647 617.639 903.753 617.577 903.866 617.529 904.394 617.276 904.73 616.742 904.729 616.157 904.729 614.099 903.278 612.769 901.029 612.769 898.707 612.769 897.108 614.985 896.782 617.069 896.487 619.094 896.983 621.155 898.166 622.825 898.338 623.073 898.522 623.313 898.719 623.542L898.749 623.578C900.158 625.149 902.178 626.032 904.288 626L905.308 626C911.635 626.007 916.77 620.884 916.777 614.557 916.777 614.11 916.752 613.664 916.7 613.221Z" fill="#85C5E9"/></g></svg>