<svg width="114" height="114" xmlns="http://www.w3.org/2000/svg" xmlns:xlink="http://www.w3.org/1999/xlink" overflow="hidden"><defs><clipPath id="clip0"><rect x="522" y="194" width="114" height="114"/></clipPath></defs><g clip-path="url(#clip0)" transform="translate(-522 -194)"><path d="M546.938 232.226C550.217 232.226 552.875 229.567 552.875 226.288 552.875 223.009 550.217 220.351 546.938 220.351 543.658 220.351 541 223.009 541 226.288 541 229.567 543.658 232.226 546.938 232.226Z" fill="#85C5E9"/><path d="M554.68 245.68C555.192 246.049 555.806 246.249 556.438 246.25L564.75 246.25C566.39 246.25 567.719 244.921 567.719 243.281 567.719 241.642 566.39 240.312 564.75 240.312L557.411 240.312 551.759 236.168C550.524 234.472 548.477 233.566 546.391 233.793 543.319 234.175 541.029 236.813 541.083 239.909L541.083 256.938C541.083 260.217 543.741 262.875 547.021 262.875L552.875 262.875 552.875 262.875 560 262.875 560 277.98C560 279.62 561.329 280.949 562.969 280.949 564.608 280.949 565.938 279.62 565.938 277.98L565.938 259.871C565.938 258.231 564.608 256.902 562.969 256.902L552.875 256.902 552.875 244.338Z" fill="#85C5E9"/><path d="M611.062 232.226C614.342 232.226 617 229.567 617 226.288 617 223.009 614.342 220.351 611.062 220.351 607.783 220.351 605.125 223.009 605.125 226.288 605.125 229.567 607.783 232.226 611.062 232.226Z" fill="#85C5E9"/><path d="M611.609 233.734C609.523 233.507 607.476 234.413 606.241 236.109L600.589 240.312 593.25 240.312C591.61 240.312 590.281 241.642 590.281 243.281 590.281 244.921 591.61 246.25 593.25 246.25L601.562 246.25C602.194 246.249 602.808 246.049 603.32 245.68L605.125 244.338 605.125 256.938 595.067 256.938C593.427 256.938 592.098 258.267 592.098 259.906L592.098 277.98C592.098 279.62 593.427 280.949 595.067 280.949 596.706 280.949 598.036 279.62 598.036 277.98L598.036 262.875 605.161 262.875 605.161 262.875 610.956 262.875C614.235 262.875 616.893 260.217 616.893 256.938L616.893 239.849C616.949 236.762 614.672 234.127 611.609 233.734Z" fill="#85C5E9"/><path d="M599.188 248.625 558.812 248.625C557.501 248.625 556.438 249.688 556.438 251 556.438 252.312 557.501 253.375 558.812 253.375L576.625 253.375 576.625 277.125 569.5 277.125 569.5 281.875 588.5 281.875 588.5 277.125 581.375 277.125 581.375 253.375 599.188 253.375C600.499 253.375 601.562 252.312 601.562 251 601.562 249.688 600.499 248.625 599.188 248.625Z" fill="#85C5E9"/><path d="M555.25 265.25 538.625 265.25 538.625 241.5C538.625 240.188 537.562 239.125 536.25 239.125 534.938 239.125 533.875 240.188 533.875 241.5L533.875 267.625C533.875 268.937 534.938 270 536.25 270L543.375 270 543.375 277.125 538.625 277.125 538.625 281.875 552.875 281.875 552.875 277.125 548.125 277.125 548.125 270 555.25 270C556.562 270 557.625 268.937 557.625 267.625 557.625 266.313 556.562 265.25 555.25 265.25Z" fill="#85C5E9"/><path d="M621.75 239.719C620.438 239.719 619.375 240.782 619.375 242.094L619.375 265.25 602.75 265.25C601.438 265.25 600.375 266.313 600.375 267.625 600.375 268.937 601.438 270 602.75 270L609.875 270 609.875 277.125 605.125 277.125 605.125 281.875 619.375 281.875 619.375 277.125 614.625 277.125 614.625 270 621.75 270C623.062 270 624.125 268.937 624.125 267.625L624.125 242.094C624.125 240.782 623.062 239.719 621.75 239.719Z" fill="#85C5E9"/></g></svg>