<svg width="114" height="114" xmlns="http://www.w3.org/2000/svg" xmlns:xlink="http://www.w3.org/1999/xlink" overflow="hidden"><defs><clipPath id="clip0"><rect x="186" y="411" width="114" height="114"/></clipPath></defs><g clip-path="url(#clip0)" transform="translate(-186 -411)"><path d="M281 488.138C280.937 484.651 279.309 481.378 276.567 479.224 272.128 475.593 266.91 473.35 261.434 471.387L255.615 469C255.169 468.819 254.877 468.386 254.875 467.905L254.875 464.998C259.214 461.522 261.809 456.317 261.973 450.76L265.117 445.366C265.57 444.296 265.752 443.131 265.647 441.974 264.959 434.191 260.239 427.34 253.214 423.924 252.647 423.658 251.982 423.717 251.472 424.079L250.272 424.91 248.946 423.097C248.538 422.525 247.923 422.134 247.232 422.006 245.996 421.792 244.744 421.686 243.489 421.688 232.793 421.687 223.61 429.298 221.625 439.809L221.576 440.068C221 443.151 219.806 446.087 218.066 448.697L224.004 448.697 224.004 450.188C224.005 455.946 226.624 461.392 231.12 464.99L231.12 467.905C231.12 468.387 230.829 468.822 230.383 469.005L224.528 471.407C219.066 473.362 213.872 475.598 209.478 479.192 206.703 481.36 205.057 484.666 205 488.188L205 509.051 206.057 509.756C211.883 513.64 227.661 515.575 243.329 515.575 259.123 515.575 274.805 513.606 280.039 509.679L280.989 508.966ZM260.225 484.625C261.536 484.625 262.6 485.688 262.6 487 262.6 488.312 261.536 489.375 260.225 489.375 258.913 489.375 257.85 488.312 257.85 487 257.85 485.688 258.913 484.625 260.225 484.625ZM228.75 450.188 228.75 448.697 237.134 448.697C249.341 448.697 247.681 438.968 253.022 437.575 254.451 437.304 255.928 437.484 257.25 438.089L257.25 450.188C257.25 458.058 250.87 464.438 243 464.438 235.13 464.438 228.75 458.058 228.75 450.188ZM243 469.188C245.443 469.187 247.863 468.712 250.125 467.79L250.125 467.909C250.123 469.748 250.979 471.483 252.439 472.602 249.379 473.522 246.196 473.972 243 473.938 239.802 473.971 236.618 473.519 233.556 472.597 235.017 471.479 235.874 469.745 235.875 467.905L235.875 467.786C238.137 468.71 240.557 469.186 243 469.188ZM276.25 506.482C265.707 512.218 221.283 512.175 209.75 506.41L209.75 488.241C209.794 486.147 210.784 484.185 212.442 482.904 216.113 480.101 220.218 477.918 224.594 476.441L224.594 481.682C219.918 481.995 216.285 485.877 216.281 490.562 216.283 491.066 216.499 491.546 216.875 491.881L216.875 499.469C216.879 501.122 218.02 502.556 219.63 502.93 220.23 503.71 221.348 503.856 222.128 503.256 222.908 502.657 223.054 501.538 222.454 500.758 221.854 499.979 220.736 499.833 219.956 500.432 219.929 500.453 219.904 500.474 219.878 500.496 219.496 500.295 219.255 499.901 219.25 499.469L219.25 491.881C219.627 491.546 219.843 491.066 219.844 490.562 219.844 487.611 222.236 485.219 225.188 485.219L226.375 485.219C229.326 485.219 231.719 487.611 231.719 490.562 231.72 491.066 231.936 491.546 232.312 491.881L232.312 499.469C232.308 499.9 232.067 500.295 231.686 500.496 230.941 499.853 229.816 499.936 229.173 500.681 228.53 501.425 228.613 502.55 229.358 503.193 230.103 503.836 231.227 503.753 231.87 503.008 231.892 502.983 231.913 502.957 231.934 502.93 233.544 502.555 234.684 501.122 234.688 499.469L234.688 491.881C235.064 491.546 235.28 491.066 235.281 490.562 235.276 485.878 231.643 481.998 226.969 481.686L226.969 475.58C227.292 475.461 227.611 475.351 227.935 475.239 231.422 477.413 236.916 478.688 243 478.688 249.084 478.688 254.576 477.414 258.057 475.244 258.385 475.362 258.709 475.473 259.035 475.588L259.035 482.344C259.035 482.371 259.049 482.393 259.05 482.419 256.508 483.066 254.972 485.652 255.62 488.194 256.268 490.736 258.853 492.272 261.396 491.625 263.938 490.977 265.474 488.391 264.826 485.849 264.397 484.164 263.081 482.848 261.396 482.419 261.396 482.393 261.41 482.37 261.41 482.344L261.41 476.445C265.797 477.928 269.912 480.119 273.591 482.933 275.221 484.197 276.197 486.126 276.25 488.188Z" fill="#85C5E9"/><path d="M261.412 487C261.412 487.656 260.881 488.188 260.225 488.188 259.569 488.188 259.037 487.656 259.037 487 259.037 486.344 259.569 485.812 260.225 485.812 260.881 485.812 261.412 486.344 261.412 487Z" fill="#85C5E9"/></g></svg>