<svg width="114" height="113" xmlns="http://www.w3.org/2000/svg" xmlns:xlink="http://www.w3.org/1999/xlink" overflow="hidden"><defs><clipPath id="clip0"><rect x="186" y="176" width="114" height="113"/></clipPath></defs><g clip-path="url(#clip0)" transform="translate(-186 -176)"><path d="M90.6354 72.9721 90.6354 30.6042 22.3646 30.6042 22.3646 72.9909ZM24.7188 32.9583 88.2812 32.9583 88.2812 70.6168 24.7188 70.6368Z" fill="#85C5E9" transform="matrix(1.00885 0 0 1 186 176)"/><path d="M18.8333 29.4271C18.8333 28.1269 19.8873 27.0729 21.1875 27.0729L91.8125 27.0729C93.1127 27.0729 94.1667 28.1269 94.1667 29.4271L94.1667 77.7028 96.5208 77.7028 96.5208 29.4271C96.5208 26.8268 94.4128 24.7188 91.8125 24.7188L21.1875 24.7188C18.5872 24.7188 16.4792 26.8268 16.4792 29.4271L16.4792 77.7028 18.8333 77.7028Z" fill="#85C5E9" transform="matrix(1.00885 0 0 1 186 176)"/><path d="M62.3854 81.2117 62.3854 83.5659 50.6146 83.5659 50.6146 81.2117 2.35417 81.2117 2.35417 83.5659C2.35806 86.8147 4.99077 89.4474 8.23958 89.4513L104.76 89.4513C108.009 89.4474 110.642 86.8147 110.646 83.5659L110.646 81.2117ZM104.76 87.0971 8.23958 87.0971C6.28933 87.0971 4.70833 85.5162 4.70833 83.5659L48.2604 83.5659C48.2175 84.823 49.2017 85.8771 50.4589 85.92 50.5108 85.9218 50.5627 85.9218 50.6146 85.92L62.3854 85.92C63.6425 85.963 64.6966 84.9787 64.7396 83.7216 64.7413 83.6697 64.7413 83.6178 64.7396 83.5659L108.292 83.5659C108.292 85.5162 106.711 87.0971 104.76 87.0971Z" fill="#85C5E9" transform="matrix(1.00885 0 0 1 186 176)"/></g></svg>