<svg width="113" height="113" xmlns="http://www.w3.org/2000/svg" xmlns:xlink="http://www.w3.org/1999/xlink" overflow="hidden"><defs><clipPath id="clip0"><rect x="73" y="176" width="113" height="113"/></clipPath></defs><g clip-path="url(#clip0)" transform="translate(-73 -176)"><path d="M108.312 192.479 105.958 192.479 105.958 272.547 153.042 272.547 153.042 192.479 108.312 192.479ZM150.688 270.193 108.312 270.193 108.312 194.833 150.688 194.833Z" fill="#85C5E9"/><path d="M156.573 180.708 102.427 180.708C101.129 180.712 100.077 181.764 100.073 183.062L100.073 281.967C100.077 283.265 101.129 284.317 102.427 284.321L156.573 284.321C157.871 284.316 158.922 283.265 158.927 281.967L158.927 183.062C158.923 181.764 157.871 180.713 156.573 180.708ZM156.573 281.967 102.427 281.967 102.427 183.062 156.573 183.062Z" fill="#85C5E9"/><path d="M124.792 188.948 135.385 188.948C136.036 188.948 136.562 188.421 136.562 187.771 136.562 187.121 136.036 186.594 135.385 186.594L124.792 186.594C124.142 186.594 123.615 187.121 123.615 187.771 123.615 188.421 124.142 188.948 124.792 188.948Z" fill="#85C5E9"/></g></svg>