<svg width="170" height="170" xmlns="http://www.w3.org/2000/svg" xmlns:xlink="http://www.w3.org/1999/xlink" overflow="hidden"><defs><clipPath id="clip0"><rect x="452" y="269" width="170" height="170"/></clipPath></defs><g clip-path="url(#clip0)" transform="translate(-452 -269)"><path d="M580.385 380.74C577.552 377.906 573.302 376.49 569.406 377.375L561.438 369.583C568.521 360.375 572.417 349.042 572.417 337.354 572.594 307.781 548.688 283.875 519.292 283.698 489.896 283.521 465.99 307.427 465.812 336.823 465.635 366.219 489.542 390.125 518.938 390.302 530.625 390.302 542.135 386.406 551.521 379.323L559.312 387.115C558.604 391.188 559.844 395.26 562.677 398.271L584.812 420.406C589.594 425.188 597.562 425.188 602.344 420.406 607.125 415.625 607.125 407.656 602.344 402.875L580.385 380.74ZM519.292 379.677C495.74 379.677 476.792 360.729 476.792 337.177 476.792 313.625 495.74 294.677 519.292 294.677 542.844 294.677 561.792 313.625 561.792 337.177 561.792 360.552 542.667 379.677 519.292 379.677Z" fill="#66D3CA"/><path d="M557.365 334.521 547.271 334.521C546.385 334.698 545.5 335.229 544.969 335.938L538.24 343.198 532.573 323.542C532.042 321.948 530.271 320.885 528.677 321.417 527.792 321.771 526.906 322.302 526.552 323.365L515.927 351.521 508.667 312.562C508.312 310.792 506.719 309.729 505.125 310.083 504.062 310.26 503.177 311.146 502.646 312.208L495.031 334.521 481.219 334.521 481.219 341.604 497.333 341.604C498.75 341.427 499.99 340.365 500.344 338.948L504.771 325.49 511.854 363.562C512.031 364.979 513.271 366.042 514.688 366.042L515.042 366.042C516.281 366.042 517.521 365.333 518.052 364.094L529.385 334.344 533.99 350.281C534.521 351.875 536.115 352.938 537.885 352.406 538.417 352.229 538.948 351.875 539.302 351.521L548.865 341.604 557.542 341.604 557.542 334.521Z" fill="#66D3CA"/></g></svg>