<svg width="189" height="189" xmlns="http://www.w3.org/2000/svg" xmlns:xlink="http://www.w3.org/1999/xlink" overflow="hidden"><defs><clipPath id="clip0"><rect x="833" y="264" width="189" height="189"/></clipPath></defs><g clip-path="url(#clip0)" transform="translate(-833 -264)"><path d="M921.397 406.538C920.412 406.538 919.231 406.341 918.444 405.553 916.869 404.175 916.672 401.616 918.05 400.041L925.728 391.181C927.106 389.606 929.666 389.409 931.241 390.788 932.816 392.166 933.013 394.725 931.634 396.3L923.956 405.159C923.366 405.947 922.381 406.341 921.397 406.538Z" fill="#CCCCCC"/><path d="M909.388 402.009C908.009 402.206 906.828 401.812 905.647 400.828 903.678 399.056 903.481 395.906 905.253 393.938L914.309 383.503C916.081 381.534 919.231 381.337 921.2 383.109 923.169 384.881 923.366 388.031 921.594 390L912.537 400.434C911.75 401.419 910.569 402.009 909.388 402.009Z" fill="#CCCCCC"/><path d="M896.984 394.725C895.409 394.922 893.834 394.331 892.653 393.347 890.291 391.181 889.897 387.441 892.062 385.078L901.119 374.644C903.284 372.281 907.025 371.888 909.388 374.053 911.75 376.219 912.144 379.959 909.978 382.322L900.922 392.756C899.938 393.938 898.362 394.725 896.984 394.725Z" fill="#CCCCCC"/><path d="M882.612 387.441C881.037 387.638 879.463 387.047 878.281 386.062 875.919 383.897 875.525 380.156 877.691 377.794L888.125 365.981C890.291 363.619 894.031 363.225 896.394 365.391 898.756 367.556 899.15 371.297 896.984 373.659L886.55 385.472C885.369 386.653 883.991 387.244 882.612 387.441Z" fill="#CCCCCC"/><path d="M842.056 344.128 857.216 353.381C858.987 354.562 861.547 353.972 862.531 352.003L880.841 321.684C882.022 319.913 881.431 317.353 879.463 316.369L864.5 307.116 842.056 344.128Z" fill="#CCCCCC"/><path d="M969.631 369.919 937.934 342.75 935.769 340.781 922.184 356.334C920.216 358.697 917.459 360.075 914.309 360.272 913.916 360.272 913.522 360.272 913.325 360.272 910.372 360.272 907.616 359.288 905.647 357.319 900.725 352.987 900.331 345.506 904.466 340.584L916.081 327.197C907.025 326.016 895.409 330.741 883.4 324.834L866.272 353.184 879.659 368.737 884.778 362.831C886.55 360.666 889.306 359.484 892.259 359.484L892.259 359.484C894.622 359.484 896.984 360.272 898.756 361.847 900.922 363.619 901.906 366.178 902.103 368.934 903.088 368.541 904.269 368.344 905.45 368.344 907.812 368.344 910.175 369.131 911.947 370.706 914.112 372.675 915.294 375.234 915.294 377.991 916.081 377.794 917.066 377.597 917.853 377.597L917.853 377.597C920.019 377.597 921.987 378.384 923.759 379.763 925.531 381.337 926.516 383.503 926.713 385.866 927.303 385.669 928.091 385.472 928.878 385.472L928.878 385.472C930.847 385.472 932.619 386.062 933.997 387.441 935.572 388.819 936.556 390.788 936.753 392.756 936.95 394.922 936.162 396.891 934.784 398.466L928.091 406.144 930.847 408.309C932.225 409.097 933.8 409.688 935.572 409.491 939.903 409.097 943.053 405.356 942.659 401.025 942.659 401.025 942.659 400.828 942.659 400.828 943.25 401.025 944.037 401.025 944.628 401.025 948.959 400.631 952.109 396.891 951.716 392.559 951.716 392.559 951.716 392.362 951.716 392.362 952.306 392.559 953.094 392.559 953.684 392.559 958.016 392.166 961.166 388.425 960.772 384.094 960.772 383.7 960.575 383.306 960.575 382.913 961.756 383.503 963.134 383.897 964.709 383.7 969.041 383.306 972.191 379.566 971.797 375.234 971.994 373.069 971.009 371.297 969.631 369.919Z" fill="#CCCCCC"/><path d="M1012.94 344.128 997.784 353.381C996.013 354.562 993.453 353.972 992.469 352.003L974.159 321.684C972.978 319.913 973.569 317.353 975.537 316.369L990.697 307.116 1012.94 344.128Z" fill="#CCCCCC"/><path d="M971.797 325.622C955.456 331.528 943.644 325.819 930.453 323.259 930.256 323.259 929.469 323.062 929.469 323.062 927.106 322.866 924.547 323.653 922.775 325.622L907.222 343.341C904.269 346.688 904.662 351.609 908.009 354.366 909.781 355.744 911.75 356.531 913.916 356.334 915.884 356.138 917.853 355.35 919.231 353.578 919.231 353.578 935.375 335.072 935.375 335.072L972.191 366.769 972.191 366.769 972.191 366.769C973.175 367.753 973.569 368.147 974.356 369.328L988.531 352.987 971.797 325.622Z" fill="#CCCCCC"/></g></svg>