<svg width="2486" height="2524" xmlns="http://www.w3.org/2000/svg" xmlns:xlink="http://www.w3.org/1999/xlink" xml:space="preserve" overflow="hidden"><defs><clipPath id="clip0"><rect x="957" y="-6" width="2486" height="2524"/></clipPath><clipPath id="clip1"><rect x="2752" y="973" width="260" height="262"/></clipPath><clipPath id="clip2"><rect x="2752" y="973" width="260" height="262"/></clipPath><clipPath id="clip3"><rect x="2752" y="973" width="260" height="262"/></clipPath><clipPath id="clip4"><rect x="2070" y="316" width="260" height="262"/></clipPath><clipPath id="clip5"><rect x="2070" y="316" width="260" height="262"/></clipPath><clipPath id="clip6"><rect x="2070" y="316" width="260" height="262"/></clipPath><clipPath id="clip7"><rect x="2070" y="1717" width="260" height="259"/></clipPath><clipPath id="clip8"><rect x="2070" y="1717" width="260" height="259"/></clipPath><clipPath id="clip9"><rect x="2070" y="1717" width="260" height="259"/></clipPath><clipPath id="clip10"><rect x="1339" y="997" width="262" height="262"/></clipPath><clipPath id="clip11"><rect x="1339" y="997" width="262" height="262"/></clipPath><clipPath id="clip12"><rect x="1339" y="997" width="262" height="262"/></clipPath><clipPath id="clip13"><rect x="1940" y="984" width="520" height="519"/></clipPath><clipPath id="clip14"><rect x="1940" y="984" width="520" height="519"/></clipPath><clipPath id="clip15"><rect x="1940" y="984" width="520" height="519"/></clipPath></defs><g clip-path="url(#clip0)" transform="translate(-957 6)"><path d="M1096 1237.5C1096 627.501 1590.28 133 2200 133 2809.72 133 3304 627.501 3304 1237.5 3304 1847.5 2809.72 2342 2200 2342 1590.28 2342 1096 1847.5 1096 1237.5ZM1170.59 1237.5C1170.59 1806.31 1631.47 2267.41 2200 2267.41 2768.53 2267.41 3229.42 1806.31 3229.42 1237.5 3229.42 668.694 2768.53 207.585 2200 207.585 1631.47 207.585 1170.59 668.694 1170.59 1237.5Z" fill="#85C5E9" fill-rule="evenodd"/><g clip-path="url(#clip1)"><g clip-path="url(#clip2)"><g clip-path="url(#clip3)"><path d="M192.292 119.167C181.729 119.167 173.333 110.771 173.333 100.208 173.333 89.6458 181.729 81.25 192.292 81.25 202.854 81.25 211.25 89.6458 211.25 100.208 211.25 110.771 202.854 119.167 192.292 119.167ZM222.083 100.208C222.083 83.6875 208.812 70.4166 192.292 70.4166 175.771 70.4166 162.5 83.6875 162.5 100.208 162.5 113.75 171.708 125.396 184.167 128.917L184.167 192.292C184.167 214.771 166.021 232.917 143.542 232.917 121.062 232.917 102.917 214.771 102.917 192.292L102.917 164.667C130.542 160.604 151.667 137.042 151.667 108.333 151.667 104.271 149.5 100.75 146.25 99.1249L146.25 32.5C146.25 24.375 140.021 17.6042 132.167 16.5208 131.083 13.2708 128.104 10.8333 124.583 10.8333L121.875 10.8333C115.917 10.8333 111.042 15.7083 111.042 21.6667 111.042 27.625 115.917 32.5 121.875 32.5L124.583 32.5C127.833 32.5 130.812 30.3333 132.167 27.625 134.062 28.4375 135.417 30.3333 135.417 32.5L135.417 99.1249C132.167 101.021 130 104.542 130 108.333 130 127.833 114.292 143.542 94.7916 143.542 75.2916 143.542 59.5833 127.833 59.5833 108.333 59.5833 104.271 57.4166 100.75 54.1666 99.1249L54.1666 32.5C54.1666 30.3333 55.5208 28.4375 57.4166 27.625 58.7708 30.6042 61.4791 32.5 65 32.5L67.7083 32.5C73.6666 32.5 78.5416 27.625 78.5416 21.6667 78.5416 15.7083 73.6666 10.8333 67.7083 10.8333L65 10.8333C61.4791 10.8333 58.5 13.2708 57.4166 16.5208 49.5625 17.6042 43.3333 24.375 43.3333 32.5L43.3333 99.1249C40.0833 101.021 37.9166 104.542 37.9166 108.333 37.9166 137.042 59.0416 160.604 86.6666 164.667L86.6666 192.292C86.6666 223.708 112.125 249.167 143.542 249.167 174.958 249.167 200.417 223.708 200.417 192.292L200.417 128.917C212.875 125.396 222.083 113.75 222.083 100.208Z" fill="#66D3CA" transform="matrix(1 0 0 1 2752 974)"/><path d="M205.833 100.208C205.833 107.687 199.77 113.75 192.292 113.75 184.813 113.75 178.75 107.687 178.75 100.208 178.75 92.7294 184.813 86.6666 192.292 86.6666 199.77 86.6666 205.833 92.7294 205.833 100.208Z" fill="#66D3CA" transform="matrix(1 0 0 1 2752 974)"/></g></g></g><path d="M2070 133C2070 61.203 2128.2 3.0001 2200 3.0001 2271.8 3.0001 2330 61.203 2330 133 2330 204.797 2271.8 263 2200 263 2128.2 263 2070 204.797 2070 133Z" stroke="#85C5E9" stroke-width="18.3333" stroke-miterlimit="8" fill="#FFFFFF" fill-rule="evenodd"/><text fill="#85C5E9" font-family="Calibri,Calibri_MSFontService,sans-serif" font-weight="700" font-size="147" transform="matrix(1 0 0 1 2162.76 182)">1</text><path d="M3174 1237.5C3174 1165.98 3232.2 1108 3304 1108 3375.8 1108 3434 1165.98 3434 1237.5 3434 1309.02 3375.8 1367 3304 1367 3232.2 1367 3174 1309.02 3174 1237.5Z" stroke="#85C5E9" stroke-width="18.3333" stroke-miterlimit="8" fill="#FFFFFF" fill-rule="evenodd"/><text fill="#85C5E9" font-family="Calibri,Calibri_MSFontService,sans-serif" font-weight="700" font-size="147" transform="matrix(1 0 0 1 3267.09 1286)">2</text><path d="M2070 2342C2070 2270.2 2128.2 2212 2200 2212 2271.8 2212 2330 2270.2 2330 2342 2330 2413.8 2271.8 2472 2200 2472 2128.2 2472 2070 2413.8 2070 2342Z" stroke="#85C5E9" stroke-width="18.3333" stroke-miterlimit="8" fill="#FFFFFF" fill-rule="evenodd"/><text fill="#85C5E9" font-family="Calibri,Calibri_MSFontService,sans-serif" font-weight="700" font-size="147" transform="matrix(1 0 0 1 2162.76 2391)">3</text><path d="M966 1237.5C966 1165.98 1024.2 1108 1096 1108 1167.8 1108 1226 1165.98 1226 1237.5 1226 1309.02 1167.8 1367 1096 1367 1024.2 1367 966 1309.02 966 1237.5Z" stroke="#85C5E9" stroke-width="18.3333" stroke-miterlimit="8" fill="#FFFFFF" fill-rule="evenodd"/><text fill="#85C5E9" font-family="Calibri,Calibri_MSFontService,sans-serif" font-weight="700" font-size="147" transform="matrix(1 0 0 1 1058.43 1286)">4</text><path d="M2611.17 1199.73 2612.59 1220.35 2612.92 1241.31 2612.26 1262.13 2610.54 1282.7 2607.76 1303.02 2604.05 1323 2599.35 1342.74 2593.73 1362.05 2587.24 1380.99 2579.75 1399.6 2571.48 1417.73 2562.34 1435.35 2552.37 1452.52 2541.65 1469.19 2530.12 1485.29 2517.8 1500.86 2504.78 1515.73 2491.11 1530 2476.74 1543.63 2461.65 1556.61 2445.99 1568.83 2429.71 1580.35 2412.81 1591.08 2395.32 1601.02 2377.34 1610.08 2358.89 1618.35 2339.85 1625.71 2320.39 1632.13 2300.46 1637.62 2280.11 1642.12 2259.43 1645.68 2238.36 1648.19 2219.79 1649.52 2201.33 1649.98 2183.09 1649.65 2164.89 1648.53 2146.86 1646.61 2129.13 1643.89 2111.56 1640.46 2094.18 1636.28 2077.11 1631.32 2060.25 1625.7 2043.76 1619.34 2027.55 1612.33 2011.67 1604.58 1996.19 1596.25 1981.1 1587.25 1966.35 1577.59 1952.05 1567.33 1938.24 1556.5 1924.87 1545.11 1911.95 1533.05 1899.6 1520.5 1887.7 1507.41 1875.5 1492.72 1855.03 1457.95 1894.52 1434.69 1914.06 1467.87 1911.95 1464.86 1922.63 1477.74 1921.96 1476.96 1933.21 1489.33 1932.58 1488.68 1944.27 1500.55 1943.57 1499.87 1955.76 1511.25 1954.98 1510.55 1967.61 1521.3 1966.9 1520.72 1979.96 1530.97 1979.17 1530.38 1992.67 1540.07 1991.87 1539.51 2005.8 1548.64 2004.99 1548.13 2019.24 1556.63 2018.36 1556.14 2032.99 1564.01 2032.17 1563.59 2047.17 1570.9 2046.23 1570.47 2061.54 1577.09 2060.68 1576.74 2076.24 1582.74 2075.25 1582.38 2091.18 1587.7 2090.33 1587.43 2106.46 1592.12 2105.42 1591.84 2121.8 1595.78 2120.83 1595.57 2137.46 1598.82 2136.53 1598.66 2153.28 1601.22 2152.24 1601.09 2169.24 1602.9 2168.23 1602.81 2185.41 1603.88 2184.42 1603.84 2201.67 1604.15 2200.68 1604.15 2218.11 1603.72 2217.06 1603.77 2234.56 1602.52 2233.48 1602.62 2253.41 1600.24 2252.23 1600.42 2271.79 1597.04 2270.75 1597.25 2290 1593 2288.85 1593.28 2307.66 1588.1 2306.57 1588.42 2324.95 1582.36 2323.86 1582.75 2341.8 1575.81 2340.69 1576.27 2358.13 1568.46 2357.19 1568.91 2374.19 1560.35 2373.18 1560.89 2389.68 1551.51 2388.71 1552.09 2404.65 1541.97 2403.7 1542.6 2419.08 1531.73 2418.21 1532.37 2433.02 1520.81 2432.19 1521.5 2446.44 1509.25 2445.6 1510 2459.16 1497.13 2458.39 1497.89 2471.33 1484.39 2470.63 1485.15 2482.95 1471.09 2482.22 1471.97 2493.84 1457.28 2493.18 1458.16 2504.06 1442.97 2503.41 1443.92 2513.54 1428.17 2513 1429.05 2522.43 1412.8 2521.91 1413.76 2530.53 1397.13 2530.03 1398.18 2537.84 1381.05 2537.43 1382.01 2544.49 1364.45 2544.07 1365.57 2550.2 1347.7 2549.87 1348.72 2555.18 1330.47 2554.9 1331.56 2559.33 1312.94 2559.09 1314.07 2562.59 1295.2 2562.42 1296.27 2565.05 1277.08 2564.91 1278.27 2566.54 1258.9 2566.47 1260.09 2567.1 1240.4 2567.09 1241.49 2566.77 1221.67 2566.82 1222.88 2565.45 1202.87ZM1822.97 1497 1824.66 1343.28 1946.62 1436.86Z" fill="#CCCCCC"/><path d="M1788.83 1275.27 1787.41 1254.65 1787.08 1233.69 1787.74 1212.87 1789.46 1192.3 1792.24 1171.98 1795.95 1152 1800.65 1132.26 1806.27 1112.95 1812.76 1094.01 1820.25 1075.4 1828.52 1057.27 1837.66 1039.65 1847.63 1022.48 1858.35 1005.81 1869.88 989.71 1882.2 974.144 1895.22 959.266 1908.89 945.003 1923.26 931.365 1938.35 918.394 1954.01 906.165 1970.29 894.649 1987.19 883.916 2004.68 873.979 2022.66 864.924 2041.11 856.654 2060.15 849.293 2079.61 842.872 2099.54 837.375 2119.89 832.882 2140.57 829.315 2161.64 826.805 2180.27 825.479 2198.73 825.016 2217.04 825.346 2235.23 826.471 2253.31 828.392 2271.15 831.111 2288.72 834.611 2306.11 838.776 2323.3 843.755 2340.1 849.441 2356.64 855.792 2372.86 862.878 2388.72 870.611 2404.24 878.997 2419.4 888.002 2434.11 897.677 2448.48 908.006 2462.31 918.922 2475.65 930.35 2488.55 942.391 2501.01 955.041 2512.86 968.22 2525.02 982.939 2545.61 1017.98 2506.09 1041.2 2486.43 1007.74 2488.52 1010.72 2477.83 997.783 2478.46 998.513 2467.27 986.076 2467.98 986.826 2456.23 974.888 2456.93 975.566 2444.74 964.191 2445.47 964.843 2432.84 954.031 2433.55 954.612 2420.49 944.299 2421.31 944.92 2407.75 935.17 2408.53 935.71 2394.66 926.585 2395.55 927.141 2381.24 918.641 2382.04 919.098 2367.35 911.161 2368.21 911.599 2353.21 904.287 2354.08 904.689 2338.77 898.001 2339.72 898.394 2324.1 892.394 2324.96 892.706 2309.09 887.331 2310.06 887.637 2293.88 882.95 2294.91 883.224 2278.47 879.286 2279.33 879.475 2262.71 876.162 2263.73 876.343 2246.92 873.78 2247.95 873.914 2230.89 872.101 2231.9 872.186 2214.71 871.123 2215.71 871.163 2198.4 870.85 2199.39 870.847 2181.95 871.284 2183 871.234 2165.44 872.484 2166.52 872.381 2146.59 874.756 2147.77 874.583 2128.21 877.958 2129.25 877.753 2110 882.003 2111.15 881.717 2092.34 886.905 2093.43 886.575 2075.06 892.638 2076.14 892.249 2058.2 899.186 2059.31 898.726 2041.87 906.539 2042.81 906.092 2025.81 914.655 2026.82 914.113 2010.32 923.488 2011.29 922.906 1995.35 933.031 1996.3 932.397 1980.92 943.272 1981.79 942.627 1966.98 954.19 1967.81 953.503 1953.56 965.753 1954.4 964.995 1940.84 977.87 1941.61 977.106 1928.67 990.606 1929.37 989.846 1917.05 1003.91 1917.78 1003.04 1906.16 1017.72 1906.82 1016.84 1895.94 1032.03 1896.59 1031.08 1886.46 1046.83 1887 1045.95 1877.57 1062.2 1878.09 1061.24 1869.47 1077.87 1869.97 1076.82 1862.16 1093.95 1862.57 1092.99 1855.51 1110.55 1855.93 1109.43 1849.8 1127.3 1850.13 1126.28 1844.82 1144.53 1845.11 1143.44 1840.67 1162.06 1840.91 1160.93 1837.41 1179.8 1837.58 1178.73 1834.96 1197.92 1835.09 1196.73 1833.46 1216.1 1833.53 1214.91 1832.91 1234.6 1832.91 1233.51 1833.23 1253.33 1833.18 1252.12 1834.55 1272.13ZM2577.81 979.072 2575.64 1132.79 2453.97 1038.82Z" fill="#CCCCCC"/><text fill="#333333" font-family="Segoe UI Light,Segoe UI Light_MSFontService,sans-serif" font-weight="700" font-size="73" transform="matrix(1 0 0 1 1876.59 670)">INDIVIDUAL HEALTH <tspan font-size="73" x="237.188" y="86">PLAN</tspan></text><g clip-path="url(#clip4)"><g clip-path="url(#clip5)"><g clip-path="url(#clip6)"><path d="M75.8333 67.7083 138.125 67.7083 138.125 73.125 75.8333 73.125Z" fill="#66D3CA" transform="matrix(1 0 0 1 2070 317)"/><path d="M75.8333 108.333 138.125 108.333 138.125 113.75 75.8333 113.75Z" fill="#66D3CA" transform="matrix(1 0 0 1 2070 317)"/><path d="M75.8333 148.958 138.125 148.958 138.125 154.375 75.8333 154.375Z" fill="#66D3CA" transform="matrix(1 0 0 1 2070 317)"/><path d="M75.8333 189.583 138.125 189.583 138.125 195 75.8333 195Z" fill="#66D3CA" transform="matrix(1 0 0 1 2070 317)"/><path d="M211.25 21.6667 48.75 21.6667 48.75 238.333 211.25 238.333ZM205.833 232.917 54.1666 232.917 54.1666 27.0833 205.833 27.0833Z" fill="#66D3CA" transform="matrix(1 0 0 1 2070 317)"/><path d="M184.167 58.2291 159.792 58.2291 159.792 82.6041 184.167 82.6041ZM178.75 77.1875 165.208 77.1875 165.208 63.6458 178.75 63.6458Z" fill="#66D3CA" transform="matrix(1 0 0 1 2070 317)"/><path d="M184.167 98.8541 159.792 98.8541 159.792 123.229 184.167 123.229ZM178.75 117.812 165.208 117.812 165.208 104.271 178.75 104.271Z" fill="#66D3CA" transform="matrix(1 0 0 1 2070 317)"/><path d="M184.167 139.479 159.792 139.479 159.792 163.854 184.167 163.854ZM178.75 158.437 165.208 158.437 165.208 144.896 178.75 144.896Z" fill="#66D3CA" transform="matrix(1 0 0 1 2070 317)"/><path d="M184.167 180.104 159.792 180.104 159.792 204.479 184.167 204.479ZM178.75 199.062 165.208 199.062 165.208 185.521 178.75 185.521Z" fill="#66D3CA" transform="matrix(1 0 0 1 2070 317)"/></g></g></g><text fill="#333333" font-family="Segoe UI Light,Segoe UI Light_MSFontService,sans-serif" font-weight="700" font-size="73" transform="matrix(1 0 0 1 2689.3 1346)">PREVENTIVE <tspan font-size="73" x="-38.9585" y="86">EXAMINATION</tspan><tspan font-size="73" x="-698.128" y="718">EVALUATION </tspan><tspan font-size="73" x="-679.497" y="804">OF RESULTS</tspan></text><g clip-path="url(#clip7)"><g clip-path="url(#clip8)"><g clip-path="url(#clip9)"><path d="M195.599 170.238C191.282 165.922 184.807 163.763 178.872 165.112L166.731 153.242C177.523 139.212 183.458 121.946 183.458 104.14 183.728 59.0843 147.306 22.6625 102.521 22.3927 57.7354 22.1229 21.3135 58.5448 21.0437 103.33 20.7739 148.116 57.1958 184.537 101.981 184.807 119.787 184.807 137.324 178.872 151.623 168.08L163.494 179.951C162.414 186.156 164.303 192.361 168.62 196.948L202.344 230.672C209.628 237.956 221.769 237.956 229.053 230.672 236.337 223.387 236.337 211.247 229.053 203.962L195.599 170.238ZM102.521 168.62C66.6385 168.62 37.7708 139.752 37.7708 103.87 37.7708 67.9875 66.6385 39.1198 102.521 39.1198 138.403 39.1198 167.271 67.9875 167.271 103.87 167.271 139.482 138.133 168.62 102.521 168.62Z" fill="#66D3CA" transform="matrix(1.00386 0 0 1 2070 1717)"/><path d="M160.526 99.8228 145.148 99.8228C143.799 100.093 142.45 100.902 141.641 101.981L131.388 113.043 122.755 83.0958C121.946 80.6677 119.248 79.0489 116.82 79.8583 115.471 80.3979 114.122 81.2072 113.582 82.826L97.3947 125.723 86.3333 66.3687C85.7937 63.6708 83.3656 62.052 80.9374 62.5916 79.3187 62.8614 77.9697 64.2104 77.1604 65.8291L65.5593 99.8228 44.5156 99.8228 44.5156 110.615 69.0666 110.615C71.225 110.345 73.1135 108.726 73.6531 106.568L80.3979 86.0635 91.1895 144.069C91.4593 146.227 93.3478 147.846 95.5062 147.846L96.0458 147.846C97.9343 147.846 99.8228 146.767 100.632 144.878L117.899 99.5531 124.913 123.834C125.723 126.262 128.151 127.881 130.849 127.072 131.658 126.802 132.468 126.262 133.007 125.723L147.576 110.615 160.796 110.615 160.796 99.8228Z" fill="#66D3CA" transform="matrix(1.00386 0 0 1 2070 1717)"/></g></g></g><g clip-path="url(#clip10)"><g clip-path="url(#clip11)"><g clip-path="url(#clip12)"><path d="M1577.79 1049.46 1404.46 1049.46C1398.5 1049.46 1393.62 1054.33 1393.62 1060.29L1393.62 1099.56C1396.6 1098.75 1400.12 1098.21 1403.37 1098.21 1405.54 1098.21 1407.71 1098.48 1409.88 1098.75L1409.88 1065.71 1572.38 1065.71 1572.38 1168.62 1480.56 1168.62 1465.12 1184.88 1577.79 1184.88C1583.75 1184.88 1588.63 1180 1588.63 1174.04L1588.63 1060.29C1588.63 1054.33 1583.75 1049.46 1577.79 1049.46" fill="#66D3CA"/><path d="M1403.65 1155.08C1416.38 1155.08 1426.67 1144.79 1426.67 1132.06 1426.67 1119.33 1416.38 1109.04 1403.65 1109.04 1390.92 1109.04 1380.62 1119.33 1380.62 1132.06 1380.35 1144.79 1390.92 1155.08 1403.65 1155.08" fill="#66D3CA"/><path d="M1492.21 1128.27C1488.69 1122.85 1481.65 1121.5 1476.23 1124.75 1475.15 1125.29 1474.6 1126.38 1474.06 1126.92L1434.52 1168.08C1430.73 1166.19 1426.67 1164.56 1422.6 1163.21 1416.38 1162.12 1409.88 1160.77 1403.65 1160.77 1397.42 1160.77 1390.92 1161.85 1384.69 1163.75 1375.48 1166.19 1367.35 1170.79 1360.58 1176.48 1358.96 1178.1 1357.6 1180.54 1357.06 1182.71L1351.37 1206.54 1432.35 1206.54 1432.35 1206.27 1455.38 1179.46 1490.85 1142.08C1494.1 1138.83 1495.19 1132.6 1492.21 1128.27" fill="#66D3CA"/></g></g></g><text fill="#333333" font-family="Segoe UI Light,Segoe UI Light_MSFontService,sans-serif" font-weight="700" font-size="73" transform="matrix(1 0 0 1 1353.33 1346)">RESULT <tspan font-size="73" x="-128.333" y="86">PRESENTATION</tspan></text><g clip-path="url(#clip13)"><g clip-path="url(#clip14)"><g clip-path="url(#clip15)"><path d="M379.454 321.726C348.638 313.881 322.088 295.235 289.553 257.51L288.472 256.229 289.494 255.051C320.926 218.785 348.433 194.625 380.448 194.625 400.224 194.599 418.864 203.861 430.786 219.64L399.116 237.924 479.637 259.5 501.213 178.947 468.365 197.912C448.587 168.784 415.657 151.353 380.448 151.375 328.159 151.375 289.921 188.521 256.797 226.716 223.651 188.483 185.434 151.375 133.145 151.375 75.016 150.958 27.5558 197.743 27.1392 255.872 26.7226 314.001 73.5077 361.461 131.636 361.878 132.139 361.882 132.642 361.882 133.145 361.878 185.261 361.878 222.218 325.764 256.797 285.747 291.089 325.516 328.327 357.65 380.448 361.878 438.982 366.614 480.378 320.461 480.761 285.358 480.761 285.316 480.726 285.283 480.685 285.283 480.654 285.284 480.627 285.302 480.615 285.331 472.306 310.589 421.779 332.484 379.454 321.726ZM224.073 257.467C190.597 296.203 164.988 318.628 133.145 318.628 98.9024 319.182 70.6948 291.872 70.1406 257.629 69.5871 223.387 96.8967 195.179 131.139 194.625 131.808 194.614 132.476 194.614 133.145 194.625 165.177 194.625 192.679 218.78 224.116 255.051L225.143 256.229Z" fill="#CCCCCC" transform="matrix(1.00193 0 0 1 1940 984)"/></g></g></g></g></svg>