<svg width="96" height="96" xmlns="http://www.w3.org/2000/svg" xmlns:xlink="http://www.w3.org/1999/xlink" overflow="hidden"><defs><clipPath id="clip0"><rect x="1103" y="589" width="96" height="96"/></clipPath></defs><g clip-path="url(#clip0)" transform="translate(-1103 -589)"><path d="M1130 636 1130 675 1137 675 1137 646.383C1137 645.278 1137.9 644.383 1139 644.383 1140.1 644.383 1141 645.278 1141 646.383L1141 675 1149 675 1149 646.383C1149 645.278 1149.9 644.383 1151 644.383 1152.1 644.383 1153 645.278 1153 646.383L1153 675 1161 675 1161 646.383C1161 645.278 1161.9 644.383 1163 644.383 1164.1 644.383 1165 645.278 1165 646.383L1165 675 1172 675 1172 636Z" fill="#66D3CA"/><path d="M1187.7 611.221 1187.7 611.221C1186.9 604.254 1181 598.997 1173.98 599L1129.14 599C1123.94 598.94 1119.09 601.602 1116.35 606.019 1111.17 614.655 1117.35 624 1125.92 624L1127.15 624C1129.21 624 1131.16 623.103 1132.51 621.544L1132.51 621.544C1134.07 619.773 1134.77 617.408 1134.44 615.071 1134.11 612.985 1132.52 610.771 1130.19 610.771 1127.95 610.771 1126.5 612.101 1126.5 614.159 1126.5 614.744 1126.83 615.278 1127.36 615.531 1128.12 615.857 1128.48 616.738 1128.15 617.5 1128.1 617.612 1128.04 617.719 1127.97 617.816 1127.49 618.402 1126.66 618.564 1126 618.2 1124.47 617.431 1123.5 615.867 1123.5 614.155 1123.46 610.658 1126.27 607.794 1129.77 607.757 1129.91 607.755 1130.05 607.759 1130.19 607.767 1133.69 607.767 1136.79 610.707 1137.41 614.605 1138.13 619.906 1135.04 624.987 1130 626.787L1130 632 1172 632 1172 626.717C1167.09 624.83 1164.12 619.82 1164.82 614.608 1165.43 610.708 1168.53 607.769 1172.03 607.769 1175.52 607.566 1178.52 610.231 1178.72 613.722 1178.73 613.867 1178.73 614.012 1178.73 614.157 1178.73 615.869 1177.76 617.433 1176.23 618.202 1175.57 618.567 1174.74 618.403 1174.26 617.814 1173.76 617.154 1173.89 616.213 1174.55 615.713 1174.65 615.639 1174.75 615.577 1174.87 615.529 1175.39 615.276 1175.73 614.742 1175.73 614.157 1175.73 612.099 1174.28 610.769 1172.03 610.769 1169.71 610.769 1168.11 612.985 1167.78 615.069 1167.49 617.094 1167.98 619.155 1169.17 620.825 1169.34 621.073 1169.52 621.313 1169.72 621.542L1169.75 621.578C1171.16 623.149 1173.18 624.032 1175.29 624L1176.31 624C1182.64 624.007 1187.77 618.884 1187.78 612.557 1187.78 612.11 1187.75 611.664 1187.7 611.221Z" fill="#66D3CA"/></g></svg>