<svg width="57" height="57" xmlns="http://www.w3.org/2000/svg" xmlns:xlink="http://www.w3.org/1999/xlink" xml:space="preserve" overflow="hidden"><defs><clipPath id="clip0"><rect x="1063" y="423" width="57" height="57"/></clipPath></defs><g clip-path="url(#clip0)" transform="translate(-1063 -423)"><path d="M1091.49 428.938C1079.04 428.937 1068.94 439.033 1068.94 451.488 1068.94 463.942 1079.04 474.038 1091.49 474.039 1103.94 474.039 1114.04 463.943 1114.04 451.489 1114.04 451.488 1114.04 451.487 1114.04 451.486 1114.05 439.038 1103.96 428.942 1091.51 428.938 1091.5 428.938 1091.5 428.938 1091.49 428.938ZM1097.46 458.347C1097.04 459.084 1096.47 459.718 1095.77 460.2 1095.02 460.719 1094.18 461.103 1093.3 461.334 1092.33 461.594 1091.33 461.723 1090.33 461.718 1089.32 461.722 1088.31 461.633 1087.31 461.452 1086.48 461.318 1085.67 461.048 1084.93 460.654L1084.93 457.616C1085.72 458.169 1086.6 458.576 1087.54 458.819 1088.48 459.076 1089.45 459.209 1090.43 459.213 1090.9 459.209 1091.37 459.163 1091.83 459.074 1092.32 458.987 1092.79 458.817 1093.22 458.572 1093.65 458.328 1094.01 457.987 1094.28 457.576 1094.58 457.099 1094.73 456.542 1094.71 455.98 1094.72 455.405 1094.58 454.836 1094.3 454.333 1094.03 453.876 1093.64 453.496 1093.18 453.23 1092.65 452.93 1092.08 452.72 1091.48 452.609 1090.78 452.473 1090.07 452.407 1089.36 452.411L1087.53 452.411 1087.53 449.888 1089.27 449.888C1089.9 449.893 1090.53 449.833 1091.15 449.71 1091.67 449.61 1092.18 449.413 1092.63 449.129 1093.03 448.87 1093.36 448.514 1093.59 448.093 1093.84 447.618 1093.95 447.089 1093.94 446.556 1093.96 446.072 1093.85 445.591 1093.61 445.166 1093.41 444.819 1093.13 444.528 1092.78 444.318 1092.45 444.114 1092.07 443.97 1091.69 443.894 1091.31 443.817 1090.93 443.777 1090.54 443.775 1089.72 443.783 1088.89 443.903 1088.1 444.132 1087.27 444.356 1086.49 444.716 1085.77 445.196L1085.77 442.398C1086.51 442.007 1087.3 441.719 1088.12 441.54 1089.01 441.346 1089.91 441.25 1090.83 441.255 1091.64 441.253 1092.45 441.349 1093.24 441.54 1093.98 441.713 1094.68 442.01 1095.32 442.418 1095.91 442.799 1096.41 443.312 1096.77 443.916 1097.14 444.569 1097.33 445.313 1097.31 446.065 1097.36 447.247 1096.95 448.404 1096.18 449.298 1095.35 450.181 1094.26 450.781 1093.07 451.013 1093.72 451.08 1094.35 451.24 1094.94 451.488 1095.53 451.728 1096.08 452.064 1096.55 452.484 1097.01 452.893 1097.39 453.389 1097.67 453.943 1097.95 454.516 1098.09 455.148 1098.08 455.786 1098.1 456.68 1097.88 457.562 1097.46 458.347Z" fill="#CCCCCC"/></g></svg>