<svg width="132" height="133" xmlns="http://www.w3.org/2000/svg" xmlns:xlink="http://www.w3.org/1999/xlink" overflow="hidden"><defs><clipPath id="clip0"><rect x="754" y="129" width="132" height="133"/></clipPath></defs><g clip-path="url(#clip0)" transform="translate(-754 -129)"><path d="M108.625 89.3173C108.475 85.3174 106.62 81.5728 103.529 79.0295 99.2214 75.3706 93.3144 72.2219 85.063 69.1598 87.9575 68.8439 90.7958 68.1367 93.5 67.0574 93.5 67.0574 90.3897 65.197 88.4634 57.5836 87.241 52.8 91.9187 40.8402 91.9586 32.4211 91.9586 25.6836 90.0446 22.6669 86.4297 20.6209 84.3439 19.4384 79.5341 20.5274 79.5341 20.5274 79.5341 20.5274 77.055 15.8125 68.7363 13.2275 61.9015 11.3643 54.6065 12.2942 48.4578 15.8125 43.3125 19.14 40.8375 22.7947 40.711 35.365 40.6051 46.8861 42.1864 57.1175 41.4549 61.941 41.1168 64.6117 40.0994 67.1512 38.5 69.3165 41.0205 69.5285 43.5516 69.5841 46.079 69.4829 38.2772 72.4433 32.6274 75.4985 28.4694 79.0281 25.3661 81.587 23.5109 85.355 23.375 89.375L23.375 113.532 24.5987 114.349C31.3363 118.839 48.9266 121.076 66.3891 121.076 83.9987 121.076 101.475 118.8 107.525 114.262L108.625 113.438ZM85.9444 85.25C87.4632 85.25 88.6944 86.4812 88.6944 88 88.6944 89.5188 87.4632 90.75 85.9444 90.75 84.4255 90.75 83.1944 89.5188 83.1944 88 83.1944 86.4812 84.4255 85.25 85.9444 85.25ZM49.5 38.4161C50.17 38.3752 50.8372 38.2948 51.4979 38.1755 56.1111 37.5676 60.6134 36.3012 64.867 34.4149 69.6479 32.01 72.3883 30.8303 76.3551 27.2387 76.8784 26.7235 77.7202 26.7301 78.2354 27.2535 78.431 27.4522 78.5592 27.7072 78.6019 27.9826 78.9181 30.1689 79.7404 34.98 80.8335 36.8981 81.3274 37.8415 81.8841 38.7505 82.5 39.6192L82.5 45.375C82.5 54.4877 75.1127 61.875 66 61.875 56.8873 61.875 49.5 54.4877 49.5 45.375ZM76.7539 71.3749C73.2632 72.4038 69.6391 72.9092 66 72.875 62.3576 72.9098 58.7302 72.4038 55.2365 71.3735 56.8294 70.0703 57.7523 68.12 57.75 66.0619L57.75 65.7511C63.04 67.9126 68.9668 67.9126 74.2569 65.7511L74.2569 66.0564C74.2485 68.1147 75.1664 70.0678 76.7566 71.3749ZM103.125 110.562C91.08 117.188 42.075 117.132 28.886 110.479L28.886 89.4327C28.9886 87.0037 30.1379 84.738 32.0375 83.2205 35.8625 80.1728 40.1276 77.7231 44.6875 75.955L44.6875 81.8428C39.2738 82.2045 35.0663 86.6992 35.0625 92.125 35.0643 92.7084 35.3143 93.2634 35.75 93.6513L35.75 102.438C35.7544 104.352 37.0754 106.012 38.94 106.446 39.6344 107.349 40.9294 107.518 41.8323 106.823 42.7353 106.129 42.9043 104.834 42.2099 103.931 41.5155 103.028 40.2205 102.859 39.3176 103.553 39.2868 103.577 39.2568 103.602 39.2274 103.627 38.7849 103.394 38.5056 102.937 38.5 102.438L38.5 93.6513C38.9363 93.2638 39.1864 92.7085 39.1875 92.125 39.1875 88.7077 41.9577 85.9375 45.375 85.9375L46.75 85.9375C50.1673 85.9375 52.9375 88.7077 52.9375 92.125 52.9393 92.7084 53.1893 93.2634 53.625 93.6513L53.625 102.438C53.6199 102.937 53.3412 103.394 52.899 103.627 52.0366 102.883 50.7343 102.978 49.9901 103.841 49.2458 104.703 49.3416 106.005 50.2039 106.75 51.0663 107.494 52.3687 107.398 53.1128 106.536 53.1382 106.506 53.1627 106.476 53.1864 106.446 55.0505 106.011 56.3707 104.352 56.375 102.438L56.375 93.6513C56.8113 93.2638 57.0614 92.7085 57.0625 92.125 57.0565 86.7009 52.8496 82.2085 47.4375 81.8469L47.4375 74.8481C47.8184 74.6996 48.191 74.5511 48.5898 74.4013 52.6281 76.9092 58.9751 78.375 66 78.375 73.0249 78.375 79.3705 76.9079 83.4034 74.4013 83.8063 74.5525 84.1775 74.7024 84.5666 74.8536L84.5666 82.6031C84.5666 82.6348 84.5831 82.6595 84.5845 82.6898 81.6409 83.4397 79.8626 86.4337 80.6125 89.3773 81.3625 92.3208 84.3565 94.0992 87.3001 93.3493 90.2437 92.5994 92.022 89.6052 91.2721 86.6617 90.775 84.7104 89.2514 83.1868 87.3001 82.6898 87.3001 82.6595 87.3166 82.6334 87.3166 82.6031L87.3166 75.9605C91.877 77.7259 96.1423 80.1743 99.9666 83.2219 101.855 84.7232 103.006 86.9652 103.125 89.375Z" fill="#85C5E9" transform="matrix(1 0 0 1.00758 754 129)"/><path d="M87.3194 88C87.3194 88.7594 86.7038 89.375 85.9444 89.375 85.185 89.375 84.5694 88.7594 84.5694 88 84.5694 87.2406 85.185 86.625 85.9444 86.625 86.7038 86.625 87.3194 87.2406 87.3194 88Z" fill="#85C5E9" transform="matrix(1 0 0 1.00758 754 129)"/></g></svg>