<svg width="87" height="87" xmlns="http://www.w3.org/2000/svg" xmlns:xlink="http://www.w3.org/1999/xlink" overflow="hidden"><defs><clipPath id="clip0"><rect x="639" y="208" width="87" height="87"/></clipPath></defs><g clip-path="url(#clip0)" transform="translate(-639 -208)"><path d="M708.6 265.638C704.612 262.375 699.537 260.2 694.463 258.75 690.838 257.663 686.85 256.938 682.5 256.938 678.513 256.938 674.525 257.663 670.537 258.75 665.463 260.2 660.388 262.737 656.4 265.638 654.588 267.087 653.5 269.263 653.5 271.438L653.5 285.938 711.5 285.938 711.5 271.438C711.5 269.263 710.412 267.087 708.6 265.638Z" fill="#85C5E9"/><path d="M668.362 226.488C668.906 226.488 669.359 226.306 669.631 225.944L669.631 225.944C672.984 222.681 677.516 220.688 682.5 220.688 692.469 220.688 700.625 228.844 700.625 238.812L700.625 242.981 690.203 246.425C689.75 246.244 689.297 246.062 688.844 246.062 687.303 246.062 686.125 247.241 686.125 248.781 686.125 250.322 687.303 251.5 688.844 251.5 689.931 251.5 690.928 250.866 691.381 249.869L705.791 245.066C706.516 244.794 707.059 244.159 707.059 243.344L707.059 235.188C707.059 234.191 706.244 233.375 705.247 233.375L703.616 233.375C701.169 224.041 692.65 217.062 682.5 217.062 676.609 217.062 671.263 219.419 667.275 223.225 666.822 223.587 666.55 224.041 666.55 224.675 666.55 225.672 667.366 226.488 668.362 226.488Z" fill="#85C5E9"/><path d="M696.909 240.353C697 239.809 697 239.356 697 238.812 697 230.837 690.475 224.312 682.5 224.312 674.525 224.312 668 230.837 668 238.812 668 246.788 674.525 253.312 682.5 253.312 682.772 253.312 683.134 253.312 683.406 253.222L683.406 248.781 683.406 248.781C683.406 247.966 683.588 247.15 683.95 246.334 684.584 245.066 685.672 244.069 687.122 243.616L696.909 240.353Z" fill="#85C5E9"/></g></svg>