<svg width="96" height="96" xmlns="http://www.w3.org/2000/svg" xmlns:xlink="http://www.w3.org/1999/xlink" overflow="hidden"><defs><clipPath id="clip0"><rect x="974" y="591" width="96" height="96"/></clipPath></defs><g clip-path="url(#clip0)" transform="translate(-974 -591)"><path d="M1001 638 1001 677 1008 677 1008 648.383C1008 647.278 1008.9 646.383 1010 646.383 1011.1 646.383 1012 647.278 1012 648.383L1012 677 1020 677 1020 648.383C1020 647.278 1020.9 646.383 1022 646.383 1023.1 646.383 1024 647.278 1024 648.383L1024 677 1032 677 1032 648.383C1032 647.278 1032.9 646.383 1034 646.383 1035.1 646.383 1036 647.278 1036 648.383L1036 677 1043 677 1043 638Z" fill="#CCCCCC"/><path d="M1058.7 613.221 1058.7 613.221C1057.9 606.254 1052 600.997 1044.98 601L1000.14 601C994.942 600.94 990.09 603.602 987.348 608.019 982.169 616.655 988.347 626 996.919 626L998.152 626C1000.21 626 1002.16 625.103 1003.51 623.544L1003.51 623.544C1005.07 621.773 1005.77 619.408 1005.44 617.071 1005.11 614.985 1003.52 612.771 1001.19 612.771 998.95 612.771 997.5 614.101 997.5 616.159 997.499 616.744 997.835 617.278 998.363 617.531 999.125 617.857 999.478 618.738 999.153 619.5 999.104 619.612 999.043 619.719 998.969 619.816 998.491 620.402 997.663 620.564 997 620.2 995.47 619.431 994.504 617.867 994.5 616.155 994.463 612.658 997.268 609.794 1000.77 609.757 1000.91 609.755 1001.05 609.759 1001.19 609.767 1004.69 609.767 1007.79 612.707 1008.41 616.605 1009.13 621.906 1006.04 626.987 1001 628.787L1001 634 1043 634 1043 628.717C1038.09 626.83 1035.12 621.82 1035.82 616.608 1036.43 612.708 1039.53 609.769 1043.03 609.769 1046.52 609.566 1049.52 612.231 1049.72 615.722 1049.73 615.867 1049.73 616.012 1049.73 616.157 1049.73 617.869 1048.76 619.433 1047.23 620.202 1046.57 620.567 1045.74 620.403 1045.26 619.814 1044.76 619.154 1044.89 618.213 1045.55 617.713 1045.65 617.639 1045.75 617.577 1045.87 617.529 1046.39 617.276 1046.73 616.742 1046.73 616.157 1046.73 614.099 1045.28 612.769 1043.03 612.769 1040.71 612.769 1039.11 614.985 1038.78 617.069 1038.49 619.094 1038.98 621.155 1040.17 622.825 1040.34 623.073 1040.52 623.313 1040.72 623.542L1040.75 623.578C1042.16 625.149 1044.18 626.032 1046.29 626L1047.31 626C1053.64 626.007 1058.77 620.884 1058.78 614.557 1058.78 614.11 1058.75 613.664 1058.7 613.221Z" fill="#CCCCCC"/></g></svg>